<svg xmlns="http://www.w3.org/2000/svg" viewBox="0 0 1245 1600">
  <view id="left-top" viewBox="0 0 621 800"/>
  <view id="right-top" viewBox="622.322 0 621 800"/>
  <view id="left-bottom" viewBox="0.322 799.397 621 800"/>
  <view id="right-bottom" viewBox="621.322 799.397 621 800"/>
  <g fill="#0a0a0c" fill-rule="nonzero"><path d="M622.33858,20.38538 L622.738518,19.6855706 C623.248128,18.792 623.6616,18.0592 623.96,17.52 C623.96,17.52 657.71,2.51 663.05,0 L665.35,0 C668.065883,1.19832811 675.849314,2.61132152 684.108932,4.03405102 L685.102078,4.20481217 C685.5995,4.290203 686.097975,4.37559937 686.596511,4.46095702 L688.345355,4.76038682 C695.523018,5.99013872 702.471724,7.20103448 706.21,8.26 L753.82,39.46 C753.91,39.48 797.16,42.74 799.95,42.84 C800.615856,43.64512 806.853832,49.2420357 813.841979,55.4401858 L814.499169,56.0228959 L815.159871,56.6083616 C815.932395,57.2927138 816.710289,57.9811254 817.487243,58.6681132 L818.46563,59.5329033 C826.118428,66.294814 833.4211,72.6933 834.3,73.45 C838.48,77.74 854,93.98 859.31,98.94 C859.576977,98.9972093 864.84877,98.4884789 870.514796,97.9826821 L871.34625,97.90875 C871.589974,97.8871684 871.834009,97.865643 872.077993,97.8442184 L872.809427,97.7802919 C878.288604,97.3037818 883.558673,96.9009184 884.5,97.08 C884.538,97.099 886.280642,97.682604 889.080231,98.6160567 L889.99869,98.9222101 C890.440728,99.0695195 890.904021,99.2238634 891.386528,99.384565 L892.889648,99.8850661 C896.69486,101.151827 901.423557,102.724092 906.270688,104.33493 L907.696971,104.808902 C907.935001,104.887998 908.173125,104.967125 908.41125,105.04625 L909.839251,105.520732 L910.885769,105.868434 C919.069242,108.587296 926.862677,111.174847 930.378103,112.34196 L931.194936,112.613144 C931.4597,112.701044 931.681452,112.774663 931.856693,112.832843 L932.33,112.99 C933.34,113.37 972.48,152.53 976.21,165.99 C976.793567,167.707489 979.531317,176.276947 982.355674,185.326908 L982.633686,186.218393 L982.991248,187.366973 C985.909621,196.751078 988.7551,206.1384 989.25,208.51 C1104.39,278.8 1083.19,311.67 1102.95,374.28 C1103.26795,374.7768 1108.1593,382.512544 1113.38768,390.680856 L1114.52798,392.460801 C1114.60414,392.579572 1114.6803,392.698332 1114.75646,392.817057 L1115.39069,393.80522 L1115.64393,394.199454 L1116.14903,394.985219 C1120.51684,401.776594 1124.5996,408.0336 1125.91,409.76 C1135.2655,455.0921 1133.55567,421.976996 1134.72371,465.293814 L1134.76057,466.628579 C1134.76946,466.639344 1134.77311,466.645288 1134.77804,466.653939 L1134.78971,466.675064 C1134.79373,466.682527 1134.79828,466.69111 1134.80342,466.700962 L1134.85399,466.800954 C1135.24845,467.597129 1137.26378,471.938588 1147.37,494.75 C1151.91,503.13 1149.69,508.64 1153.91,531.52 C1152.61,540.12 1147.53,533.87 1170.96,562.16 C1174.69,566.33 1177.82,571.02 1181.65,575.1 C1182.39549,579.748088 1183.07421,583.897345 1183.69139,587.602499 L1183.96499,589.240026 C1186.00102,601.388748 1187.33468,608.498527 1188.17163,612.720342 L1188.37133,613.720325 C1190.45602,624.081132 1188.8876,613.8114 1187.99,628.14 C1184.96,658.25 1179.97,648.79 1204.1,675.18 C1204.27068,675.617647 1206.04068,683.065473 1207.8978,691.587851 L1208.07774,692.415752 C1208.19782,692.969657 1208.31805,693.527238 1208.43804,694.0869 L1208.6925,695.27875 C1208.7771,695.6767 1208.86143,696.075128 1208.94535,696.473468 L1209.19573,697.667654 C1209.31686,698.248271 1209.43681,698.82749 1209.55512,699.403549 L1209.7313,700.265047 C1211.39231,708.42256 1212.67538,715.759114 1212.28,717.17 C1203.47,768.48 1203.53,729.87 1223.99,789.63 C1224.05965,790.387948 1224.09573,797.794644 1224.10511,806.88623 L1224.10595,807.785743 C1224.10607,807.936509 1224.10619,808.087685 1224.1063,808.239247 L1224.10688,809.153093 C1224.10697,809.306117 1224.10704,809.459484 1224.10711,809.613173 L1224.10702,814.498547 C1224.10676,815.063193 1224.10641,815.629035 1224.10598,816.195076 L1224.105,817.327125 L1224.1038,818.457929 C1224.09226,828.435976 1224.05512,838.06064 1224,841.83 L1213.5,877.81 C1213.73,878.32 1239.65,919.45 1239.72,919.51 C1240.4716,920.850426 1241.04902,928.2411 1241.51809,935.84425 L1241.58,936.85875 L1241.64066,937.872693 L1241.66469,938.279231 L1241.71216,939.08975 C1242.12815,946.230753 1242.4555,952.817145 1242.75,953.9 C1237.53,1106.4 1190.17,1071.53 1184.93,1195.09 C1163.04,1257.27 1145.83,1306.89 1101.67,1353.89 C1101.6616,1353.9506 1101.63952,1354.11085 1101.60427,1354.36095 L1101.56464,1354.64065 C1100.89032,1359.37744 1097.1588,1384.4732 1092.2,1394.63 C1047.4,1467 1086.56,1412.73 1023.62,1461.55 C1023.62,1461.55 991.1,1470.12 978.74,1472.81 C975.2,1473.53 923.81,1513.42 909.03,1522.47 C871.82,1545.37 888.16,1541.82 812.34,1564.42 C791.71,1567.34 745.87,1573.48 743.52,1573.55 C738.8,1572.36 698.93,1571.91 695.39,1569.76 C636.52,1543.48 658.54,1552.02 609.51,1583.16 C608.5325,1583.7159 607.979252,1584.164 607.571885,1584.55899 L607.433713,1584.69628 C607.345032,1584.78646 607.262614,1584.87405 607.182834,1584.95977 L607.064687,1585.08703 C605.60125,1586.6625 604.4275,1587.705 579.64,1592.91 C557.69,1598.41 532.34,1611.16 453.47,1571.34 C382.26,1552.95 421.43,1580.42 346.78,1532.99 C302.1,1509.97 216.19,1465.24 192.49,1428.22 C117.48,1305.99 37.02,1274.34 35.78,1165.3 C35.7512,1164.4408 31.489952,1154.96464 27.0041101,1145.23117 L26.4425,1144.01375 L25.8802899,1142.79728 C21.7306512,1133.82654 17.6742239,1125.23013 16.8632938,1123.58316 L16.7521248,1123.36138 C16.742987,1123.34382 16.7356,1123.33 16.73,1123.32 C15.4113187,1120.77055 14.7012595,1114.06894 14.234628,1107.04038 L14.1664133,1105.98412 L14.138629,1105.53717 L14.0847858,1104.64303 C14.0759968,1104.49406 14.0672979,1104.34513 14.0586857,1104.19629 L14.0080249,1103.30451 C13.6768542,1097.36989 13.4733625,1091.68439 13.1773442,1088.55455 L13.13222,1088.10453 C13.0557646,1087.38741 12.9728382,1086.83721 12.88,1086.49 C12.94,1081.84 12.45,1077.23 11.75,1072.64 C17.71,1039.58 9.77,1055.2 26.66,1025.74 C25.35,1023.73 24.08,1021.65 23.08,1019.49 C23.09,1017.44 10.02,954.24 15.8,934.86 C23.35,903.98 21.52,925.74 7.48,902.38 C7.06,900.61 1.56,867.46 0,854.34 C9.6,805.02 7.01,787.67 44.87,753.47 C22.04,718.59 26.15,733.26 26.81,662.76 C27.7970968,660.185806 31.1067742,651.992466 34.5695432,643.671109 L35.0319624,642.561318 C35.1862776,642.191456 35.3407047,641.821824 35.4950533,641.452903 L35.9576731,640.348755 L36.3231874,639.478713 C39.4241401,632.106543 42.3536214,625.377669 43.54,623.27 C43.54,623.27 43.6240306,623.223673 43.7822012,623.136137 L44.1241321,622.94666 C45.6648826,622.0919 50.03601,619.654906 54.6098542,616.995015 L55.2677164,616.611699 C59.3295713,614.240308 63.4517582,611.745165 65.81,610.07 C65.84,591.23 65.71,572.39 65.86,553.57 C95.21,491.25 64.15,518.96 119.3,464.39 C122.69,396.77 117.53,428.68 139.85,359.88 C140.055345,359.258655 140.101813,358.888316 140.270983,358.468101 L140.312328,358.370106 C140.793908,357.279408 142.205719,355.718177 149.153613,348.764797 L150.114621,347.803885 C150.346268,347.572446 150.583466,347.335583 150.826353,347.093145 L151.319754,346.600797 C156.998531,340.935632 165.647759,332.356405 178.88,319.14 C181.16,316.43 192.13,282.87 192.46,281.87 C199.54,259.65 190.36,279.71 227.3,226.28 C227.551808,226.077728 239.012781,219.504056 252.41386,211.839612 L253.35185,211.30318 C253.665485,211.123824 253.980052,210.943944 254.295436,210.763607 L255.243919,210.221291 C255.560819,210.040107 255.878418,209.858531 256.196599,209.676632 L257.152777,209.130027 C257.79124,208.765063 258.431568,208.399068 259.072828,208.032573 L261.07875,206.88625 L262.082012,206.312994 L263.585057,205.454257 C263.751856,205.358966 263.918571,205.263725 264.085184,205.168543 L265.083513,204.59825 C280.368516,195.867088 294.516,187.802 294.7,187.71 C294.783258,187.451685 295.222458,186.429989 295.875645,184.907315 L296.088863,184.410123 C298.582188,178.593491 303.625056,166.713708 304.71,160.8 C305.64,159.93 337.52,122.88 339.7,120.29 C344.8,115.06 384.84,102.5 390.68,99.01 C475.45,44.62 479.28,43 479.28,43 C479.308574,42.9948798 479.351124,42.9892821 479.407189,42.9832224 L479.537202,42.9704914 C481.384192,42.8037654 491.485803,42.3546157 502.637515,41.8624186 L503.531756,41.8229555 C503.97986,41.8031826 504.429336,41.783351 504.879725,41.7634761 L505.78158,41.723673 L506.685047,41.6837816 L508.327492,41.6111884 C508.632278,41.5977061 508.936946,41.5842217 509.241353,41.5707401 L510.153653,41.5303081 C510.913017,41.4966293 511.669872,41.4629968 512.422009,41.429484 L513.322167,41.3893308 C513.471769,41.3826497 513.621147,41.3759746 513.770283,41.3693061 L514.662058,41.329378 C524.880865,40.8712168 533.780692,40.4498179 535.558031,40.2580078 L535.694489,40.241912 C535.7536,40.2341581 535.79893,40.2268489 535.83,40.22 C548.59,38.98 545.6,35.67 595.81,64.37 C596.9211,63.0908 601.2261,56.118053 606.176301,47.8709735 L606.905031,46.6554998 M1073.79,1379.8 C1019.46,1412.63 1035.36,1402.58 988.51,1418.89 C981.7168,1420.7974 972.978052,1421.98808 964.309658,1422.87906 L962.781082,1423.03326 C962.448669,1423.06619 962.116534,1423.09871 961.784792,1423.13085 L960.790861,1423.22614 C959.963758,1423.30464 959.139826,1423.38089 958.320851,1423.45527 L957.340575,1423.54365 C943.164383,1424.81282 930.705184,1425.55962 929.37,1427.73 C909.37,1456.1 871.94,1486.89 851.98,1498.08 C831.27,1510.01 741.13,1527.55 733.58,1526.49 C740.33,1522.22 821.49,1506.21 852.49,1477.16 C854.4843,1474.5434 864.567569,1464.11154 874.800852,1453.64339 L876.054118,1452.36192 C876.656018,1451.74673 877.257316,1451.13252 877.856396,1450.52086 L878.574124,1449.7882 C887.888056,1440.28222 896.504901,1431.55248 898.29,1429.61 C897.22296,1430.29172 882.277593,1437.88454 867.207879,1445.50122 L865.469297,1446.37978 C852.727123,1452.8176 840.274672,1459.08284 836.444464,1461.00304 L835.466351,1461.49249 C835.385288,1461.53288 835.3262,1461.5622 835.29,1461.58 C831.81,1462.17 828.19,1461.28 824.74,1462.24 C780.74,1459.84 828.8,1475.84 694.41,1446.55 C691.642,1445.90733 688.866178,1445.29382 686.08917,1444.68444 L681.9236,1443.77032 C675.6764,1442.3944 669.44,1440.976 663.29,1439.23 C662.64,1440.23 655.56,1451.42 655.23,1452.78 C651.92,1479.64 651.09,1481.39 652.58,1484.12 C664.08,1511.33 663.16,1508.64 666.99,1510.93 C667.875888,1511.50977 673.621452,1515.2863 679.676796,1519.37998 L680.350656,1519.83599 C680.463101,1519.91216 680.575595,1519.98841 680.688108,1520.0647 L681.915564,1520.89874 C682.251104,1521.12721 682.585879,1521.35556 682.919119,1521.58332 L683.583322,1522.03789 C689.20776,1525.89243 694.239788,1529.47923 694.89,1530.4 C644.2835,1508.9965 656.283425,1521.64432 640.925416,1507.94141 L639.918221,1507.04036 C639.395596,1506.57175 638.8438,1506.0756 638.26,1505.55 C635.48,1503.05 631.98,1499.88 627.44,1495.84 C626.48,1491.5 626.08,1487.06 625.62,1482.66 C623.966078,1483.05217 616.094211,1483.94584 607.296136,1484.81975 L606.350181,1484.91328 C605.717504,1484.97555 605.081065,1485.03763 604.442794,1485.09932 L603.484253,1485.19155 L602.524409,1485.28305 C602.364407,1485.29823 602.20441,1485.31338 602.04445,1485.32849 L600.784883,1485.44671 C600.002963,1485.51964 599.223811,1485.59145 598.450973,1485.66178 L597.526826,1485.74546 C588.933977,1486.51939 581.311111,1487.09116 579.64,1486.97 C578.29,1487.26 526.05,1491.32 524.28,1491.13 C526.4,1490.01 528.89,1490.02 531.15,1489.29 C605.08,1472.9 599.51,1469.87 626.61,1450.84 C626.7052,1449.8676 626.83508,1449.02612 627.016492,1448.18432 L627.082686,1447.887 C627.101152,1447.8066 627.120103,1447.72606 627.139554,1447.64526 L627.199425,1447.40198 C627.219893,1447.32056 627.240875,1447.23877 627.262387,1447.15649 L627.328527,1446.90809 C627.656026,1445.69939 628.097963,1444.36511 628.698793,1442.55908 L628.890408,1441.98305 C630.202507,1438.03681 632.21446,1431.91782 635.32,1420.56 C633.65,1415.13 631.86,1409.71 629.9,1404.38 C628.798261,1405.39957 627.197259,1406.9925 625.371575,1408.8174 L623.758083,1410.43045 C619.894764,1414.28962 615.446522,1418.68652 612.61,1420.89 C612.556002,1420.89995 611.320546,1421.30789 609.23705,1422.00191 L608.79399,1422.14955 C608.339049,1422.3012 607.848791,1422.46476 607.326169,1422.63925 L606.792868,1422.81734 C601.98868,1424.422 594.73599,1426.85333 587.070068,1429.42824 L586.200571,1429.72032 C585.76505,1429.86663 585.328451,1430.01331 584.891143,1430.16025 L583.577461,1430.6017 L580.892538,1431.50424 L579.99893,1431.80471 C579.85013,1431.85475 579.701407,1431.90476 579.552775,1431.95475 L578.662198,1432.25427 C578.51399,1432.30412 578.365903,1432.35393 578.21795,1432.4037 L577.331971,1432.70174 C564.364784,1437.06426 552.668,1441.0144 552.14,1441.23 C508.37,1459.36 523.14,1450.8 494.06,1478.02 C493.7,1496.44 492.21,1505.02 507.6,1523.68 C547.08,1537.87 541.18,1535.53 595.62,1535.05 C597.9575,1534.175 603.432153,1530.98229 609.247373,1527.50312 L610.12186,1526.97936 C610.267917,1526.89179 610.4141,1526.8041 610.560364,1526.71634 L611.438582,1526.18898 C611.584999,1526.101 611.73141,1526.013 611.877771,1525.92502 L612.755,1525.3975 C619.7625,1521.1825 626.455,1517.14 628,1516.78 C625.08,1519.92 621.22,1522.01 617.79,1524.55 C585.04,1549.25 607.88,1541.74 527.19,1557.06 C522.65,1559.09 453.23,1533.38 447.35,1530.35 C443.8076,1530.3059 440.552021,1530.28877 437.527844,1530.28647 L435.5454,1530.28699 C429.762244,1530.29427 424.83607,1530.34896 420.338145,1530.35704 L418.341539,1530.35721 C401.482014,1530.32635 390.016968,1529.39565 359.48,1522.2 C362.669681,1524.75933 370.174469,1529.38299 378.126585,1534.14827 L379.122649,1534.74453 C380.120484,1535.34125 381.12279,1535.93893 382.122014,1536.53381 L383.310645,1537.24105 C390.428004,1541.47375 397.234471,1545.48741 400.97,1547.91 C401.431297,1547.9469 407.867862,1548.44132 414.805238,1548.95347 L415.563766,1549.00939 C415.817096,1549.02804 416.070824,1549.0467 416.324688,1549.06533 L417.260939,1549.13391 L417.646609,1549.16209 L418.416258,1549.21816 C425.329259,1549.72085 431.801942,1550.1659 432.44,1550.12 C435.81,1550.97 439.31,1550.25 442.67,1551.09 C469.9,1553.88 442.77,1545.29 496.62,1566.74 C501.97,1568.89 507.63,1570.35 512.73,1573.11 C514.98,1574.25 517.62,1573.21 520.01,1573.86 C561.75,1578.28 554.33,1583.17 604.9,1563.58 C619.06,1549.54 633.15,1535.42 647.22,1521.27 C649.04,1522.44 665.98,1531.78 666.99,1532.33 C703.19,1552.39 689.75,1546.97 701.15,1547.95 C780.36,1547.95 737.29,1551.72 854.55,1530.6 C861.4347,1528.7662 872.999194,1521.46328 884.684868,1513.75156 L886.008048,1512.87706 C886.890186,1512.29326 887.772034,1511.70822 888.651633,1511.12411 L889.9691,1510.24892 C898.518484,1504.56829 906.7609,1499.0799 912.88,1495.8 C989.27,1434.62 936.67,1467.07 1014.5,1436.31 C1033.29,1428.55 1063,1396.14 1073.79,1379.8 Z M187.24,1373.47 C189.0488,1376.851 190.567716,1380.10186 192.061709,1383.33718 L193.021306,1385.41603 C201.887353,1404.58866 211.873,1424.0788 278.19,1467.77 C279.059318,1468.33386 279.933192,1468.90874 280.808506,1469.4907 L281.684185,1470.07488 L282.560131,1470.66289 L283.009509,1470.96584 L283.907554,1471.57362 C284.206682,1471.77655 284.505549,1471.97976 284.804029,1472.1831 L285.698185,1472.79334 C295.964783,1479.81184 305.622943,1486.79326 309.55,1487.26 C332.01,1491.66 368.04,1501.02 371.21,1500.1 C371.66,1499.974 381.182,1499.2972 391.726929,1498.48422 L392.572553,1498.4189 C392.996303,1498.3861 393.421347,1498.3531 393.847169,1498.31993 L394.699697,1498.25336 C395.126328,1498.21997 395.553393,1498.18642 395.980377,1498.15275 L397.402655,1498.04005 C397.85378,1498.00413 398.304175,1497.9681 398.753226,1497.93199 L399.649358,1497.85966 C409.930128,1497.02695 419.285188,1496.16274 420.28,1495.65 C308.05,1477.14 275.87,1396.36 274.37,1395.02 C274.37,1395.02 256.7282,1390.65612 237.321309,1385.85586 L236.025075,1385.53524 C235.808659,1385.48171 235.592068,1385.42814 235.375324,1385.37453 L234.073206,1385.05245 C232.986872,1384.78375 231.897813,1384.51437 230.80875,1384.245 L228.196388,1383.59884 C207.319744,1378.43512 187.2448,1373.47 187.24,1373.47 Z M66.7,1213.35 C83.81,1255.42 109.16,1291.74 120.87,1301.8 C179.88,1346.3425 161.191875,1337.5825 169.574063,1341.78813 L170.716568,1342.35928 C171.020748,1342.51112 171.350119,1342.67554 171.707078,1342.85406 L172.263507,1343.13261 C175.665627,1344.83747 181.313845,1347.70166 190.86,1352.77 C212.287778,1361.35889 226.962469,1363.50951 241.346694,1364.74311 L243.07182,1364.8871 L244.221581,1364.97924 C244.413237,1364.99439 244.604919,1365.00944 244.79664,1365.0244 L246.350766,1365.14401 C256.202964,1365.8931 266.27,1366.5128 278.62,1368.77 C280.9242,1372.5994 285.73309,1381.27512 290.630989,1390.24907 L291.34811,1391.56393 L292.422493,1393.53728 L292.639165,1393.93573 L293.07151,1394.73126 C293.215372,1394.99608 293.35896,1395.26049 293.502211,1395.52438 L293.930892,1396.31439 C299.203954,1406.03567 303.930375,1414.88445 304.937706,1416.88782 L305.011168,1417.03514 C305.076356,1417.16722 305.11653,1417.25323 305.13,1417.29 C305.1692,1417.4419 314.944455,1424.66955 324.934431,1432.01636 L326.15812,1432.91609 L327.380069,1433.81417 L327.721085,1434.06474 L328.401455,1434.56458 L329.079044,1435.06226 C329.304368,1435.22774 329.529115,1435.39279 329.753172,1435.5573 L330.423157,1436.0492 C338.769255,1442.17616 345.985089,1447.44964 346.09,1447.5 C392.41,1458.09 364.74,1464.82 440.91,1463.84 C448.57,1460.8 456.61,1458.95 464.58,1456.95 C482.92,1450.77 485.49,1444.61 524.2,1426.14 C626.47,1383.03 614.33,1393.49 639.31,1338.99 C639.31,1338.99 634.73,1330.53 633.54,1326.82 C592.86,1368.09 597.72,1364.12 590.99,1366.07 C527.56,1386.2 559.81,1381.92 474.72,1382.03 C470.95,1381.96 435.78,1370.41 433.19,1369.5 C431.84,1368.78 430.85,1370.08 402.31,1380.27 C393.94,1383.85 388.49,1381.03 382.67,1381.46 C382.100293,1381.32366 376.255118,1380.79611 370.280112,1380.29758 L369.576881,1380.23909 L368.690651,1380.16589 C362.941695,1379.69298 357.496867,1379.28181 356.98,1379.31 C338.03,1375.07 349.08,1384.47 325.57,1365.25 C324.353702,1364.17103 321.651866,1362.00214 318.793286,1359.72847 L318.131436,1359.20237 L317.511889,1358.71036 C317.169239,1358.43833 316.827169,1358.1669 316.487927,1357.89773 L315.981466,1357.49587 C312.538981,1354.76428 309.511669,1352.3575 309.32,1352.07 C308.473182,1351.0621 305.902237,1346.2247 303.106414,1340.92865 L302.732436,1340.22009 C302.669929,1340.10164 302.607343,1339.98304 302.544695,1339.86432 L302.168201,1339.15094 C302.042543,1338.91288 301.916771,1338.67465 301.791015,1338.43656 L301.413928,1337.72295 C301.351133,1337.60418 301.288374,1337.48552 301.225669,1337.367 L300.76703,1336.50096 C298.252431,1331.75783 295.89025,1327.39513 294.76,1325.84 C284.606398,1325.78179 276.992934,1325.76201 271.289263,1325.75788 L266.673385,1325.75776 C263.634049,1325.75986 261.340032,1325.76578 259.611771,1325.76904 L259.084602,1325.76998 C258.999804,1325.77011 258.916522,1325.77024 258.834729,1325.77036 L258.361622,1325.77094 C258.285678,1325.77102 258.211171,1325.77108 258.138074,1325.77113 L257.407655,1325.77111 C254.352853,1325.76838 254.358691,1325.72744 254.491026,1325.54218 L254.521323,1325.49859 C254.527504,1325.4891 254.533494,1325.4793 254.539012,1325.46916 L254.553868,1325.43775 C254.663308,1325.1622 254.282495,1324.66592 248.74,1323.78 C237.83,1320.66 173.41,1308.19 148.84,1275.96 C101.61,1213.69 139.2,1253.39 87.44,1226.04 C80.54,1221.79 73.66,1217.5 66.7,1213.35 Z M1201.08,899.53 C1199.02,902.41 1197.22,905.48 1195.38,908.51 C1194.65832,910.326929 1188.83118,915.49764 1182.21416,920.988759 L1181.50237,921.578181 C1181.26423,921.774972 1181.02527,921.972033 1180.78571,922.169226 L1180.06536,922.761065 L1179.11148,923.5416 L1178.40522,924.117361 L1177.69915,924.691281 C1177.58155,924.786738 1177.464,924.882086 1177.34653,924.977309 L1176.6428,925.547025 C1169.3841,931.415971 1162.59361,936.682217 1161.7,937.53 C1148.33,986.56 1148.16,964.58 1156.5,1020.87 C1156.85,1023.73 1157.68,1026.53 1157.73,1029.43 C1127.3,1004.52 1153.95,996.21 1107.5,1037.42 C1106.56762,1038.23474 1099.01025,1040.84716 1090.69509,1043.55266 L1089.84709,1043.82805 C1089.28033,1044.01177 1088.71099,1044.19565 1088.14092,1044.37916 L1086.9825,1044.75125 C1086.71437,1044.83719 1086.44636,1044.92296 1086.17864,1045.00852 L1085.37659,1045.2645 C1076.30114,1048.15696 1067.79222,1050.73556 1067.32,1050.83 C1067.33375,1051.2563 1064.96686,1063.13197 1062.3845,1075.95956 L1062.20609,1076.8456 C1062.14652,1077.14137 1062.08687,1077.43751 1062.02715,1077.7339 L1061.84785,1078.62368 L1061.5071,1080.31381 L1061.32762,1081.20359 C1061.23793,1081.64817 1061.14833,1082.09218 1061.05892,1082.53521 L1060.88036,1083.41981 L1060.70244,1084.30101 C1060.64326,1084.59409 1060.58421,1084.88647 1060.52532,1085.17803 L1060.34916,1086.05012 C1058.00744,1097.64159 1055.96323,1107.71222 1055.9,1108.1 C1054.28,1105.25 1054.48,1087.71 1053.42,1083.83 C1053.52,1080.25 1052.59,1076.77 1052.78,1073.18 C1052.44,1071.65 1051.59,1062.47 1051.2,1050.73 C1013.46,1050.01 959.3,1040.75 922.3,1034.09 C917.752,1036.871 911.9548,1040.3297 906.01891,1043.87534 L904.830212,1044.58545 C904.433582,1044.82243 904.036665,1045.05961 903.63979,1045.29683 L902.449617,1046.00843 C902.026723,1046.26136 901.604251,1046.51413 901.1826,1046.76653 L900.340511,1047.27077 C888.429783,1054.40541 877.391956,1061.12911 876.31,1062.61 C875.3,1063.48 778.85,1144.67 768.91,1159.71 C707.96,1181.8 686.93,1170.43 671.79,1168.93 C670.545556,1171.34111 667.391775,1182.28752 663.817373,1193.98564 L663.51,1194.99 C658.1975,1197.56656 658.686324,1196.54474 655.536254,1206.03626 L655.307729,1206.72389 C654.955508,1207.78209 654.56,1208.96187 654.11,1210.28 C637.26,1254.61 639.79,1256.49 640.19,1281.85 C653.78,1311.35 652.88,1312.1 673.35,1321.04 C676.28,1322.32 679.64,1323.76 683.54,1325.48 C675.65,1330.16 667.43,1334.24 659.44,1338.75 C655.59,1380.58 654.17,1380.14 655.78,1382.96 C670.3,1414.77 662.4,1404.96 673.2,1413.18 C708.26,1435.08 704.99,1434.29 707.51,1434.55 C707.51,1434.55 722.142696,1436.94821 738.746636,1439.66369 L739.868846,1439.84722 C740.056331,1439.87788 740.244028,1439.90857 740.431921,1439.9393 L741.561473,1440.12399 C742.127275,1440.21651 742.694509,1440.30925 743.262689,1440.40214 L744.969586,1440.68117 L748.458511,1441.25138 L749.016157,1441.3425 L750.130031,1441.52449 C750.871848,1441.64569 751.611955,1441.76659 752.349269,1441.88702 L753.453013,1442.06729 C770.157268,1444.79532 785.137104,1447.23322 785.67,1447.29 C860.02,1430.73 806.42,1455.05 885.5,1406.88 C893.72,1402.33 901.98,1388.87 925.23,1362.56 C927.1952,1358.5344 929.803136,1352.98404 932.38957,1347.41111 L932.845642,1346.42772 L933.019096,1346.05336 L933.365279,1345.30563 C933.538083,1344.9322 933.710411,1344.55953 933.882062,1344.18806 L934.224401,1343.44688 C938.547742,1334.08246 942.35,1325.69 942.35,1325.69 C942.349395,1325.68819 942.347476,1325.67988 942.344274,1325.66525 L942.330852,1325.60252 C942.121512,1324.61205 940.245926,1315.39751 938.255105,1305.60546 L938.091249,1304.79949 L937.927064,1303.99186 L937.655451,1302.65569 L937.573353,1302.2518 L937.32757,1301.04257 C935.283758,1290.98689 933.371873,1281.57169 933.273934,1281.08937 L933.27,1281.07 L917.79,1264.19 C918.56,1264.27 919.36,1264.38 920.07,1264.8 C957.46,1285.07 942.95,1260.53 961.48,1309.02 C962.87,1312.68 963.56,1316.64 965.68,1319.99 C966.01,1319.97 1007.81,1312.56 1010.84,1312.24 C1014.6,1310.48 1063.8,1282.08 1065.83,1278.37 C1066.12,1277.84 1089.73,1246.24 1090.07,1245.83 L1090.07414,1245.80927 C1090.16048,1245.37688 1091.58744,1238.24647 1093.32365,1230.57503 L1093.50124,1229.79326 L1093.66963,1229.05749 C1093.89516,1228.07564 1094.12461,1227.09158 1094.35584,1226.118 L1094.52957,1225.38997 C1094.55857,1225.26903 1094.58758,1225.1483 1094.61662,1225.02781 L1094.79097,1224.30791 C1094.90729,1223.83014 1095.02372,1223.35698 1095.14,1222.89 C1082.81,1227.63 1034.31,1254.21 1010.2,1251.19 C1005.28,1249.92 963.45,1241.1 946.47,1231.43 C939.3,1228.46 950.84,1227.64 882.67,1258.58 C874.33,1262.37 864.79,1266.63 853.88,1271.42 C845.648968,1275.15268 826.626394,1283.26812 806.787311,1291.6518 L805.401989,1292.23709 C805.170923,1292.33469 804.939778,1292.43232 804.70857,1292.52996 L803.320686,1293.11598 C802.857888,1293.31135 802.394962,1293.50674 801.932034,1293.70209 L799.062954,1294.91234 L797.544588,1295.55247 C772.765091,1305.9972 749.121206,1315.86669 746.01,1317.16 C745.6212,1317.1648 736.749072,1317.83085 727.449137,1318.56426 L726.285,1318.65625 L725.119903,1318.74868 C724.833278,1318.77146 724.546884,1318.79427 724.260956,1318.81707 L723.4048,1318.88546 L722.552843,1318.95374 C714.200526,1319.6243 706.661465,1320.26444 705.96,1320.43 C703.18,1320.18 700.5,1321.12 697.74,1320.97 C699.25,1319.75 701.29,1319.74 703.07,1319.18 C771.14,1302.11 722.37,1318.82 815.69,1268.01 C816.69,1267.45 933.69,1213.81 938.87,1192.62 C956.8,1136.34 953.7,1186.29 948.8,1120.48 C948.728846,1120.35548 944.494647,1112.75924 939.676111,1104.13012 L939.278825,1103.41869 C938.681142,1102.34844 938.076069,1101.26518 937.470309,1100.18096 L937.066442,1099.45815 C936.999138,1099.3377 936.931845,1099.21727 936.86457,1099.09688 L936.202924,1097.91296 L935.746613,1097.09661 C935.518948,1096.68935 935.292099,1096.28359 935.066431,1095.88 L934.616779,1095.0759 C930.28745,1087.33458 926.490415,1080.56605 925.86,1079.51 C935.1,1082.31 944.01,1086.08 953.06,1089.43 C964.08,1112.3 981.61,1123.25 970.3,1164.11 C962.296345,1189.77625 958.494256,1201.23677 958.070143,1202.50971 L958.040179,1202.59955 C958.033384,1202.61989 958.03,1202.63 958.03,1202.63 C958.127241,1202.8945 959.063409,1203.91093 960.519545,1205.37644 L961.089347,1205.94646 C962.999897,1207.84724 965.611426,1210.34843 968.361211,1212.91575 L968.931921,1213.44768 L969.639993,1214.10515 L969.995,1214.43375 L970.705653,1215.08942 C976.390128,1220.32278 981.99,1225.204 982.71,1225.18 C1054.64,1225.37 1011.53,1228.51 1072.98,1203.61 C1073.98,1203.17 1145.06,1151.59 1185.33,1091.7 C1192.27,1078.09 1225.44,1016.26 1227.21,983.31 C1225.0276,975.1415 1225.21406,969.084317 1225.4171,963.034015 L1225.45597,961.862509 C1225.87824,948.769037 1225.669,935.0735 1201.08,899.53 Z M1175.16,1151.03 C1172.79,1155.08 1170.2,1158.98 1167.78,1163 C1146.94,1194.26 1115.34,1201.8 1112.43,1214.18 C1104.68,1256.04 1111.19,1236.78 1085.43,1286.73 C1083.581,1289.3272 1077.41643,1296.52656 1070.91006,1303.94645 L1070.00038,1304.98278 L1069.42409,1305.6382 C1069.13584,1305.96583 1068.84751,1306.29323 1068.55945,1306.62004 L1067.98377,1307.27276 C1067.50451,1307.81585 1067.0266,1308.35659 1066.55163,1308.89325 L1065.98318,1309.53516 C1059.08669,1317.31851 1052.95149,1324.08234 1052.49,1324.41 C1052.2452,1324.73855 1050.64851,1325.47847 1048.13426,1326.48954 L1047.61931,1326.69532 C1043.66732,1328.26521 1037.71595,1330.42414 1031.23105,1332.6988 L1030.36337,1333.00273 C1030.07317,1333.10425 1029.78205,1333.20594 1029.49013,1333.30779 L1028.61211,1333.61372 C1027.43858,1334.02209 1026.25436,1334.43213 1025.0677,1334.84118 L1023.7321,1335.30079 C1023.58368,1335.35178 1023.43527,1335.40274 1023.28689,1335.45366 L1021.63042,1336.02102 C1021.04821,1336.22004 1020.46733,1336.4182 1019.88876,1336.61518 L1019.02277,1336.90973 C1016.71873,1337.69263 1014.45952,1338.45414 1012.30785,1339.174 L1011.50613,1339.44196 C1002.87816,1342.32286 996.154433,1344.47478 995.54,1344.54 C985.43,1344.6 975.32,1344.49 965.21,1344.59 C964.479029,1346.43526 958.282887,1356.42562 951.596097,1367.02235 L951.080845,1367.83855 L950.56416,1368.65638 C950.391749,1368.92918 950.219183,1369.20212 950.046547,1369.47508 L949.14,1370.90759 L948.893783,1371.29638 L948.401875,1372.0728 C947.992332,1372.71903 947.583895,1373.36308 947.177689,1374.00324 L946.691386,1374.76945 L946.207658,1375.53126 C939.777051,1385.65662 934.148696,1394.43563 933.94,1394.87078 C950.36,1394.85 966.78,1394.9 983.2,1394.84 C1056.98,1371.28 1030.2,1383.98 1064.89,1356.64 C1128.53,1303.09 1130.15,1277.22 1156.27,1217.32 C1172.62,1170.86 1173.43,1171.58 1175.16,1151.03 Z M882.73,1343.94 C882.408,1345.09 856.914064,1369.14358 852.097341,1373.66226 L851.812994,1373.92882 C851.558904,1374.16682 851.397,1374.3178 851.34,1374.37 C839.82,1376.19 828.4,1378.62 816.9,1380.56 C796.68,1384.06 800.64,1379.66 787.32,1380.38 C786.32,1380.16 739.18,1376.02 710.13,1364.3 C711.813529,1360.84824 713.132699,1357.24792 714.402078,1353.62667 L715.244407,1351.21081 C716.086263,1348.79464 716.937059,1346.38176 717.89,1344.01 C805.12,1368.82 866.05,1347.9 882.73,1343.94 Z M164.77,911.72 C153.74,916.75 142.2,920.73 130.94,925.3 C111.9626,933.1936 78.042896,934.054096 58.2614346,934.074392 L56.76816,934.0744 C51.8868,934.0696 47.984,934.02 45.55,934.03 C42.75,939.07 39.9,944.09 36.97,949.06 C35.78,950.05 35.5,948.91 35.86,976.27 C35.86,976.27 40.2408815,988.076926 44.7823704,1001.3963 L45.0787388,1002.26699 L45.406704,1003.23411 L45.7345562,1004.20483 C45.8983954,1004.69095 46.0620603,1005.17811 46.225353,1005.66581 L46.5513833,1006.64181 C46.8768,1007.61825 47.2002,1008.5956 47.52,1009.57 C47.81,1010.57 61.46,1033.56 64.71,1033.62 C69.66872,1034.31056 82.9548947,1036.22116 97.6508805,1038.35905 L98.8786612,1038.53772 C99.0837858,1038.56757 99.2891453,1038.59747 99.4947211,1038.6274 L100.730624,1038.8074 C101.556093,1038.92766 102.38443,1039.04841 103.214449,1039.16948 L104.460592,1039.3513 L106.95689,1039.71585 C107.164989,1039.74626 107.373083,1039.77668 107.581152,1039.80709 L108.829121,1039.98958 L110.98506,1040.30511 C127.485148,1042.72142 143.1878,1045.0538 148.74,1045.96 C148.968388,1043.6668 147.254588,1031.70828 145.416186,1018.97594 L145.274556,1017.99515 C145.227284,1017.66781 145.179961,1017.34012 145.132618,1017.01221 L144.894903,1015.36494 C144.796655,1014.68364 144.698539,1014.00252 144.600829,1013.32293 L144.454603,1012.30485 C142.680058,999.936129 141.086441,988.297459 141.34,985.54 C141.97,985 154.2,981.25 157.71,981.08 C179.35,1103.63 236.06,1112.04 250.98,1125.14 C251.121,1125.0959 251.261145,1125.05385 251.401314,1125.01366 L251.681943,1124.93568 C251.869397,1124.88526 252.057934,1124.8379 252.249637,1124.79313 L252.539826,1124.72785 C255.539541,1124.0784 259.530852,1123.98304 272.049655,1122.73497 L273.159923,1122.6235 C278.631879,1122.07026 285.648746,1121.30467 294.77,1120.2 C295.175,1118.13 295.727744,1114.96682 296.369854,1111.11813 L296.58712,1109.8104 C297.652464,1103.3724 298.932936,1095.27258 300.184402,1087.21574 L300.442831,1085.54998 C300.535735,1084.95044 300.628385,1084.3518 300.720678,1083.75475 L300.90476,1082.56299 C302.832013,1070.07629 304.5726,1058.50205 305.19,1054.38 C306.304925,1054.50537 310.27082,1055.47882 314.401715,1056.53997 L315.643247,1056.86019 C320.331887,1058.07409 324.887463,1059.30299 325.4,1059.44 C325.47,1061.32 313.92,1133.16 313.59,1134.16 C318.31,1143.11 325.02,1181.87 383.96,1229.3 C398.7,1232.16 419.35,1238.21 490.91,1225.15 C490.85,1225.38 490.72,1225.84 490.66,1226.06 C478.38,1235.41 466.92,1245.77 454.71,1255.19 C459.06,1258.9 478.02,1272.88 483,1276.89 C485.582032,1277.55864 493.105039,1279.90904 501.109985,1282.47248 L502.053698,1282.77495 C502.683964,1282.97714 503.316119,1283.18028 503.948011,1283.38367 L505.67,1283.93875 L506.536114,1284.21854 C515.755225,1287.19886 524.281212,1290.02303 525.28,1290.44 C522.16,1290.81 519.13,1289.71 516,1289.88 C515.889894,1289.85128 510.084761,1289.2267 503.789338,1288.58992 L502.9475,1288.505 L502.525259,1288.46258 L501.679845,1288.37802 L500.921507,1288.3026 C494.989671,1287.71443 489.317959,1287.19306 488.2,1287.22 C461.03,1276.59 460.51,1255 389.19,1255.66 C388.514138,1255.31402 381.495595,1250.50762 373.248096,1244.81335 L372.538277,1244.32318 C372.300747,1244.15912 372.062333,1243.99442 371.823154,1243.82916 L371.103443,1243.33179 C370.983149,1243.24865 370.862693,1243.16538 370.742091,1243.08201 L369.65312,1242.32901 C369.531773,1242.24508 369.410324,1242.16108 369.288789,1242.077 L368.193031,1241.31883 L367.461114,1240.81222 C367.339083,1240.72774 367.21704,1240.64325 367.095,1240.55875 L365.821624,1239.67689 C365.331206,1239.33717 364.841671,1238.99798 364.353991,1238.65999 L363.623985,1238.15398 C354.276552,1231.67395 345.796858,1225.76428 345.12,1225.27 C344.2736,1223.7382 332.923376,1207.40921 320.828235,1190.01228 L320.038466,1188.87632 C319.511383,1188.1182 318.983292,1187.35862 318.454997,1186.59871 L317.6625,1185.45875 L316.07899,1183.18074 C315.825979,1182.81674 315.573198,1182.45305 315.320736,1182.08979 L314.564394,1181.00148 C305.124287,1167.4172 296.257036,1154.62662 292.640373,1149.21055 L292.36233,1148.79312 C291.517893,1147.52187 291.018432,1146.73517 290.94,1146.54 C276.42,1146.47 261.89,1146.51 247.36,1146.52 C247.160405,1148.5112 243.401556,1160.38069 239.195901,1173.31379 L238.887418,1174.26189 L238.422296,1175.68947 C238.370484,1175.84837 238.318634,1176.00735 238.266751,1176.1664 L237.728681,1177.81453 L237.356149,1178.95422 C237.294048,1179.14411 237.231949,1179.33396 237.169859,1179.52374 L236.797518,1180.66135 C232.890818,1192.59269 229.100197,1204.02589 227.82,1208.18 C227.399474,1207.75947 224.356375,1203.07881 221.014668,1197.63401 L220.620289,1196.99013 C220.356638,1196.55881 220.09171,1196.12363 219.826628,1195.68628 L219.344482,1194.88865 C219.26418,1194.75544 219.183925,1194.62212 219.10375,1194.48875 L218.623904,1193.68817 L218.147466,1192.88845 C214.511672,1186.76627 211.3086,1180.9182 211.58,1179.92 C212.14,1178.22 213.43,1173.99 214.98,1168.76 C216.074754,1165.07295 217.297506,1160.89406 218.485053,1156.76638 L218.823253,1155.58891 C220.957334,1148.14634 222.925246,1141.04082 223.76,1137.49 C223.76,1137.49 213.01,1129.44 187.97,1107.84 C155.94,1079.61 177.93,1082.39 132.79,1065.06 C122.47,1061.31 87.86,1068.9 56.67,1058.65 C56.68,1063.17 58.25,1067.5 58.39,1072 C58.8412,1072.9588 62.890861,1079.39371 67.1782325,1086.10632 L67.7265889,1086.96435 C67.8747667,1087.19608 68.023057,1087.42787 68.1713222,1087.65951 L68.8378834,1088.70022 C73.1264364,1095.39143 77.2206571,1101.69224 77.77,1102.42 C135.42,1137.4 116.7,1118.1 159.15,1135.58 C162.3902,1136.8142 166.7864,1138.8183 171.205859,1140.97639 L171.985774,1141.35871 L172.375481,1141.55083 L173.153526,1141.93653 C173.647111,1142.18211 174.138893,1142.42848 174.627277,1142.67479 L175.357102,1143.04408 C182.383583,1146.61133 188.527503,1150.0724 188.92,1150.78 L197.02,1163.76 C194.729775,1163.12808 188.416935,1160.85179 181.568125,1158.37744 L180.672049,1158.05369 L179.642724,1157.68186 L178.610272,1157.30909 L178.351971,1157.21588 L177.061343,1156.75051 C168.296864,1153.5928 159.8888,1150.6219 158.93,1150.78 C107.02,1145.81 114.05,1147.26 109.85,1144.75 C70.44,1124.77 62.03,1107.49 51.24,1099.52 C49.7,1096.93 43.29,1083.44 41.12,1081.03 C41.2703663,1081.77713 42.8515235,1090.12865 44.4835533,1098.87682 L44.7206618,1100.14869 C44.7470122,1100.29014 44.7733584,1100.4316 44.7996947,1100.57304 L44.9575471,1101.42123 C45.6669297,1105.23495 46.3606347,1108.99162 46.9246976,1112.09595 L47.0862648,1112.98692 C47.769368,1116.76197 48.2252,1119.39 48.22,1119.65 C65.03,1159.57 87.88,1196.1 126.23,1216.1 C126.263077,1214.19256 127.849144,1207.75684 129.493733,1200.90932 L129.72344,1199.95159 L129.953004,1198.991 L130.010267,1198.7507 L130.29511,1197.5502 C131.352623,1193.07508 132.331795,1188.70949 132.82,1185.59 C137.24,1185.57 141.66,1185.56 146.07,1185.6 C146.0745,1187.1057 146.077128,1188.54317 146.078278,1189.91614 L146.078723,1192.5772 C146.074844,1200.30901 146.027192,1205.80846 146.020799,1209.88153 L146.020313,1211.1875 C146.03625,1226.87937 146.9325,1219.3625 154.86,1246.94 C155.8,1249.7 156.28,1252.7 157.79,1255.23 C199.44,1288.49 202.63,1296.98 270.74,1312.01 C270.758097,1311.99687 270.792015,1311.97371 270.840814,1311.94113 L270.957978,1311.86359 C271.913129,1311.23533 275.662451,1308.83804 279.629339,1306.30735 L280.197239,1305.94509 L281.217431,1305.29449 L281.895114,1304.86242 C286.398567,1301.99143 290.55,1299.35 290.55,1299.35 C290.72,1284.55 290.52,1269.74 290.65,1254.95 C292.37,1258.51 310.45,1317 310.53,1317.13 C318.87,1323.82 352.98,1348 357.15,1352.5 C362.16,1352.51 379.39,1356.84 400.87,1360.62 C408.52,1359.25 415.96,1356.9 423.52,1355.06 C423.52,1355.06 392.23,1320.45 392.22,1320.45 C392.224438,1320.45 394.505582,1316.97586 397.041813,1313.11113 L397.381311,1312.59379 C397.66519,1312.16119 397.951109,1311.72547 398.236295,1311.29084 L398.6802,1310.61431 C401.222398,1306.73983 403.5899,1303.13032 403.786787,1302.83015 L403.8,1302.81 C406.461494,1305.11115 412.847787,1312.56387 419.497486,1320.24894 L420.223786,1321.088 C420.587292,1321.50775 420.951207,1321.92767 421.31497,1322.34694 L422.042126,1323.1844 C422.163229,1323.32375 422.284274,1323.46298 422.405239,1323.60204 L423.129912,1324.43428 C425.782335,1327.47706 428.376207,1330.41391 430.69,1332.93 C431.6644,1334.2176 439.38362,1337.98447 447.771872,1342.00047 L448.64176,1342.41672 C449.222944,1342.69469 449.806314,1342.97348 450.389876,1343.25235 L451.265115,1343.67064 L452.139148,1344.08851 C456.794784,1346.31506 461.3352,1348.5004 464.74,1350.27 C511.53,1372.26 601.57,1355.67 623.59,1307.13 C622.35,1304.59 620.9,1302.13 619.85,1299.51 C619.823553,1296.75546 619.766894,1291.99614 619.759756,1286.06423 L619.75967,1283.68256 C619.786746,1260.12536 620.6724,1221.3266 626.74,1212.41 C621.989674,1211.77326 616.503075,1211.21999 611.045994,1210.71353 L609.917615,1210.6094 C609.547858,1210.57546 609.17848,1210.54173 608.809721,1210.50819 L607.705536,1210.40813 C597.054307,1209.44624 587.12425,1208.6366 583.75,1207.7 C583.416292,1207.48976 579.122589,1204.73827 573.323443,1200.87737 L572.684955,1200.45185 C570.108058,1198.73272 567.261501,1196.81225 564.349231,1194.80942 L563.619912,1194.30707 C563.49817,1194.22308 563.376344,1194.13897 563.254447,1194.05474 L562.522349,1193.54801 C562.155999,1193.29401 561.789287,1193.03912 561.422609,1192.78355 L560.214589,1191.93903 C551.364464,1185.73266 542.7908,1179.2856 540.12,1175.88 C486.05,1104.69 516.97,1156.71 438.66,1106.58 C404.04,1079.72 380.11,1014.23 368.59,989.84 C368.4332,989.4627 362.689273,984.559515 356.794779,979.594048 L355.711672,978.682348 L354.991415,978.076804 C354.798106,977.914356 354.605236,977.752335 354.412998,977.5909 L353.838377,977.108513 C351.167488,974.867069 348.65872,972.771776 346.845234,971.260378 L346.467466,970.945603 C346.161852,970.691005 345.879623,970.456023 345.623815,970.243149 L345.329723,969.998473 C344.580331,969.375152 344.11393,968.988435 344.03,968.92 C331.74,958.55 312.75,958.3 301.37,954.3 C267.05,973.67 289.04,951.54 247.12,989.31 C247.126281,989.287569 247.205984,989.085446 247.347623,988.732534 L247.439948,988.502923 C248.203341,986.607392 250.228709,981.643459 252.398112,976.424259 L252.720838,975.648523 C252.936512,975.130571 253.153054,974.611483 253.369384,974.093979 L253.693582,973.319252 C255.798078,968.295674 257.830918,963.552041 258.79,961.61 C259.470213,959.495957 265.687085,955.432589 272.062774,951.660565 L272.894845,951.170399 C279.274178,947.427945 285.578511,944.074255 286.43,943.35 C193.42,908.7 209.46,917.69 164.77,911.72 Z M276.07,711.81 C273.141311,712.604221 267.000854,713.97851 260.59314,715.404839 L259.579604,715.630404 C259.072155,715.743326 258.564006,715.856399 258.056606,715.969363 L257.066224,716.189947 C249.157211,717.952359 241.662128,719.646809 240.12,720.28 C238.0875,721.5225 235.866875,722.999375 233.62375,724.538906 L232.781847,725.118832 L231.939775,725.70262 L231.099476,726.288257 C225.228115,730.389492 219.629688,734.47875 217.3,735.45 C208.18,745.29 176.72,807.3 176.61,807.4 C178.25,800.05 183.14,744.45 184.61,736.32 C184.605547,736.32 174.263856,742.573098 162.790509,749.510745 L162.024043,749.974208 C161.896054,750.0516 161.767949,750.129062 161.639743,750.206585 L160.869384,750.672403 L159.307296,751.616963 C158.785904,751.932237 158.264096,752.247763 157.742704,752.563037 L156.180616,753.507597 L155.410257,753.973415 C155.282051,754.050938 155.153946,754.1284 155.025957,754.205792 L154.259491,754.669255 C142.786144,761.606902 132.444453,767.86 132.44,767.86 C82.93,777.61 86.98,777.77 60.85,764.27 C61.49,765.41 62.26,766.47 63.12,767.44 C33.132,791.13885 31.1632378,793.33408 30.6194947,796.001612 L30.5877588,796.165707 L30.553143,796.361791 C30.479853,796.791407 30.4125,797.2563 30.25,797.84 C24.70248,820.0864 21.9911226,828.666189 20.8223303,832.177035 L20.745015,832.408657 C20.6200896,832.781939 20.514704,833.092288 20.42696,833.35232 L20.3083379,833.706207 C20.0422628,834.508725 20.0134362,834.685751 20.1201455,834.913303 L20.1471303,834.96702 C20.4987093,835.629767 21.829664,837.078752 21.98,853.67 L21.9816164,853.682118 L21.9892962,853.762124 C22.0492046,854.420464 22.3830817,858.49871 22.7537283,862.697848 L22.8194699,863.439456 L22.8856852,864.179544 C23.2064041,867.746478 23.5335714,871.119 23.72,872.25 C25.83,876.8 28.18,881.24 30.78,885.53 C31.2911111,886.434444 31.9444444,887.71716 32.6823868,889.190384 L33.0581421,889.942002 C33.2492783,890.32488 33.4451025,890.717708 33.6447144,891.117554 L34.0487218,891.925732 C36.4317798,896.684537 39.2487037,902.132222 41.07,903.61 C49.82,908.76 57.1,916.06 59.36,915.83 C113.58,915.76 84.98,921.54 171.81,889.57 C360.43,932.38 322.35,895.49 407.83,997.16 C410.83,1001.39 440.43,1070.46 446.67,1077.16 C474.07,1115.03 469.49,1092.96 524.79,1115.71 C524.8054,1115.72848 524.829091,1115.7614 524.860716,1115.80815 L524.934438,1115.9199 C525.803354,1117.26135 529.959189,1124.33235 534.249533,1131.68904 L534.665042,1132.40168 C534.803614,1132.63941 534.94222,1132.87725 535.080755,1133.11502 L535.496039,1133.82794 L535.910258,1134.53936 L536.472238,1135.50507 L536.900605,1136.24157 C540.741064,1142.8461 544.151207,1148.75193 544.74,1149.83 C544.978355,1150.17629 551.955796,1155.15014 559.623573,1160.5629 L560.311924,1161.04869 L561.695838,1162.02463 L562.729205,1162.75279 L563.453441,1163.26285 C571.291552,1168.78188 578.811981,1174.0407 579.710516,1174.67376 L579.79,1174.73 C587.03,1180.3 612.33,1183.25 620.15,1185.55 C632.91,1172.16 636.46,1178.55 643.29,1149.74 C639.84,1137.12 640.35,1090.28 635.97,1051.79 C634.12,1035.54 631.4,1020.78 627.14,1010.71 C626.389446,1008.88351 622.657448,1000.59534 618.672253,991.795208 L618.072916,990.472092 C617.93946,990.177544 617.805873,989.882757 617.672258,989.587953 L617.118001,988.365307 C612.409957,977.981853 607.84,967.9551 607.84,967.95 C607.68,967.87 574.87,944.93 574.72,944.83 C568.631135,940.767351 559.811227,935.459208 550.734435,930.10296 L549.176358,929.184498 L547.572671,928.240951 L546.578503,927.656801 C545.087787,926.781291 543.600291,925.909385 542.126898,925.046352 L541.146845,924.472368 C526.969841,916.170339 514.336802,908.806746 513.08,907.14 L513.123343,907.154226 L513.249197,907.199949 C515.398367,908.009192 533.00867,915.636462 552.796722,924.24892 L554.196969,924.858418 C554.898729,925.16391 555.602811,925.470457 556.308634,925.777805 L557.722424,926.39349 C558.902227,926.907323 560.08578,927.422904 561.27038,927.939043 L564.172063,929.203532 C587.862198,939.528776 611.0881,949.6902 612.22,950.19 L618.04,922.11 C625.75,854.58 573.47,790.67 567.55,789.3 C452.67,758.17 538.09,778.17 415.83,779.75 C411.222,779.814 406.3132,779.846 401.09336,779.85112 L398.457473,779.851464 C398.013822,779.851156 397.568,779.850667 397.12,779.85 C394.8,779.57 358.45,769.38 354.53,764.65 C347.81,754.61 328.24,741.15 320.95,723.82 C320.8663,723.6436 320.81743,723.485344 320.769368,723.33655 L320.737072,723.23866 L320.722191,723.19585 L320.690449,723.111356 C320.149594,721.75585 318.0587,720.856387 284.39,712.75 C283.844,712.638 283.2952,712.4808 282.74424,712.31144 L282.192584,712.13925 C280.167378,711.502 278.116,710.849333 276.07,711.81 Z M686.52,17.93 C676.86,18.6 667.17,20.41 657.48,21.1 C655.58,21.66 653.55,21.15 651.66,21.59 C615.38,63.87 619.94,62.85 620.38,87.61 C620.524737,87.7389474 620.694848,87.9000277 620.887323,88.0896136 L621.192434,88.3949184 C622.637528,89.8609152 625.033065,92.5430635 627.453578,95.3257827 L628.260071,96.2555504 L628.706119,96.7719273 C632.115656,100.724745 635.253114,104.491623 635.47,104.88 C643.47,104.96 651.46,104.88 659.46,104.91 C628.0185,155.791 626.9798,180.105675 627.578285,202.64011 L627.622875,204.228142 L627.670656,205.812198 C627.67876,206.075983 627.686904,206.339684 627.69504,206.60334 L627.74339,208.185064 L627.789309,209.767654 C627.833264,211.351324 627.8702,212.9392 627.89,214.54 C630.43,221.43 632.83,228.39 635.93,235.06 L636.470377,234.834549 C641.898159,232.578665 653.184062,228.127301 664.946291,223.531155 L666.164552,223.055259 L667.966344,222.351927 L669.768397,221.649066 C685.975272,215.330308 701.6964,209.266 702.96,208.78 L637.08,267.8 C635.3598,269.8727 630.191351,280.019295 625.009118,290.375193 L624.347746,291.697753 L623.941973,292.509967 C623.87441,292.645246 623.806885,292.780469 623.739405,292.915618 L623.335137,293.725479 C623.267871,293.86026 623.200666,293.994933 623.133529,294.129478 L622.731595,294.935088 C617.719256,304.982668 613.179518,314.118916 612.35,314.93 C610.86,266.75 603.39,267.15 572.55,213.95 C574.09,214.69 583.96,219.84 604.23,231.33 C594.65,200.45 594.19,202.37 604.3,160.78 C588.73,153.39 572.66,147.04 557.1,139.61 C557.942353,136.315882 558.408235,132.961972 558.82175,129.600377 L559.127132,127.078553 C559.483772,124.136644 559.862353,121.198824 560.48,118.3 C562.62898,118.157653 570.066068,119.027384 577.974535,119.967148 L578.888868,120.075839 C579.194161,120.112138 579.499876,120.148486 579.805741,120.184831 L580.947801,120.320398 C589.320248,121.312919 597.548901,122.252747 600.01,122.04 C599.297,120.5036 595.143384,113.258232 590.795308,105.792673 L590.227331,104.818107 C585.299936,96.368864 580.3044,87.9432 579.93,87.47 C578.93,86.81 535,60.94 530.39,62.07 C444.85,84.18 472.92,80.24 444.4,91.17 C422.25,103.29 419.44,91.47 420.18,149.24 C420.33402,149.548041 422.428429,153.138474 424.785283,157.188881 L425.11568,157.756755 L425.543853,158.49291 L426.188821,159.602444 C428.767119,164.039723 431.268421,168.368947 431.6,169.07 C431.78,169.08 432.15,169.12 432.33,169.14 C432.347086,169.114 432.433372,168.946675 432.579065,168.657811 L432.684887,168.447448 C433.676426,166.472009 436.578479,160.586101 439.502123,154.606316 L440.114851,153.352346 C443.173625,147.08865 446.111,141.015 446.75,139.53 C449.531,138.0855 458.437625,135.8229 467.606893,133.359116 L468.830503,133.029474 L470.054138,132.697772 L471.407065,132.328001 C471.557025,132.286814 471.706838,132.245595 471.856476,132.204347 L472.752017,131.956542 L473.642142,131.708183 C482.660001,129.180824 490.644965,126.58793 491.7,124.55 C492.17,123.55 499.89,107.48 506.66,99.99 C515.04,121.54 515.51,117.24 509.91,135.78 C432.67,171.83 452.63,164.9 439.88,187.43 C442.487376,190.347163 446.960799,194.309313 451.512357,198.355738 L452.488236,199.22377 L453.612114,200.225806 C457.161526,203.396523 460.590213,206.528298 463.04,209.16 C463.04,209.16 453.455685,210.177377 442.997854,211.44575 L442.181343,211.545078 C441.908685,211.578348 441.635591,211.611774 441.362212,211.645343 L440.174623,211.791859 L438.98624,211.93992 C431.0672,212.9316 423.28,214.01 419.32,214.85 C375.24,243.02 383.31,234.09 359.07,276.69 C358.7204,277.3246 358.433614,277.619138 358.201343,277.984674 L358.129796,278.102946 C357.569558,279.079522 357.354387,280.791169 357.348871,289.944681 L357.349,290.869263 C357.353905,296.721761 357.434311,305.393111 357.56,318.38 C362.63,326.77 372.38,360.23 384.73,369.96 C386.3512,369.078 387.556537,368.449575 388.757662,367.875891 L389.273373,367.632799 C389.360832,367.592113 389.448578,367.551566 389.536766,367.511081 L389.802811,367.389739 C394.08576,365.448854 399.747024,363.478432 424.05,353.14 C405.21,378.39 342.54,419.93 321.73,479.15 C320.56,530.23 331.62,538.13 345.68,557.87 L404.24,522.84 C404.213016,523.006962 403.396472,523.884983 402.053567,525.232259 L401.707027,525.578714 C398.849418,528.426325 393.974096,533.07035 389.186649,537.576351 L388.336402,538.37604 L388.036484,538.657854 L387.438801,539.219053 C381.279981,544.999134 375.705403,550.145514 375.35,550.4 C352.27526,570.89606 349.181578,574.656131 347.466901,578.414736 L347.307998,578.771337 C347.273342,578.850815 347.239038,578.930527 347.204911,579.010628 L347.07416,579.32096 C346.6388,580.364 346.196,581.504 345.38,583.07 C327.6168,617.3154 327.710679,629.387361 328.288511,641.164582 L328.346296,642.322817 C328.704705,649.46892 329.0316,656.7705 325.45,669.11 C325.473011,669.570227 327.79627,679.84569 330.725568,691.368841 L330.943636,692.224561 C331.016677,692.510476 331.090063,692.797022 331.163767,693.084071 L331.38581,693.946598 C331.422968,694.09056 331.460199,694.234616 331.4975,694.37875 L331.893865,695.902971 C332.248257,697.259139 332.607832,698.617119 332.969955,699.963578 L333.241984,700.971054 C336.057028,711.355013 338.985467,720.8468 340.8,723.24 C351.27,734.09 361.37,747.53 394.5,765.88 C395.033425,766.512877 401.828242,767.4155 412.253497,767.442371 L413.211176,767.442369 C414.017454,767.440304 414.84411,767.433014 415.69,767.42 C431.03,767.18 452.7,765.07 473.87,758.13 C527.58,753.5 500.82,751.67 549.07,762.64 C593.88,750.69 593.78,729.02 600.47,711.27 C601.03,675.64 609.89,691.69 596.68,639.72 C595.43,635.2 574.8,611.07 570.23,609.95 C525.9412,599.6414 540.787576,599.066957 524.066556,599.04949 L521.418957,599.049818 C520.877485,599.050222 520.309602,599.05071 519.713502,599.0511 L516.489497,599.051381 C514.326729,599.049992 511.8617,599.0447 509.04,599.03 L509.022225,599.030932 C508.532169,599.056805 497.980362,599.624765 486.24026,601.168448 L485.144093,601.314996 C479.282384,602.11176 473.1956,603.1524 467.97,604.49 C467.501,604.6132 466.064936,605.076852 463.941778,605.783215 L462.990603,606.100516 C449.385715,610.649954 413.407804,623.108206 411.97413,623.604716 L411.93,623.62 C412.68,622.61 472.85,584.85 473.92,584.19 C529.97,567.61 559.26,580.25 572.58,579.09 C602.46,559.47 594.72,562.21 600.09,541.79 C606.69,509.51 601.65,520.48 601.52,498.91 C581.29,426.48 586.64,391.27 601.67,356.02 C608.61,340.67 602.65,342.7 622.11,329.25 C628.07,325.13 636.42,319.56 648.24,311.6 C657.47,305.38 690.7,296.62 691.72,296.49 C690.25689,297.29135 675.076509,306.498939 658.783021,316.528987 L657.220014,317.491577 C656.698152,317.813114 656.175565,318.135242 655.652664,318.457715 L652.799822,320.218593 C639.494996,328.438148 626.4692,336.5906 620.48,340.61 C612.42,378.71 611.6,384.67 613.68,392.55 C626.23,448.89 599.75,393.74 635.35,461.88 C635.99,462.538286 639.327927,465.300996 642.839784,468.159061 L644.159954,469.231381 C644.329756,469.369047 644.499228,469.506351 644.668085,469.643064 L645.172529,470.05121 C648.51941,472.757372 651.506753,475.137143 651.86,475.38 C649.3225,479.657 645.215775,486.343575 640.950841,493.261675 L640.218423,494.449497 L639.11744,496.2344 C631.778,508.1312 624.566,519.794 624.59,520.25 L624.59052,521.585022 C624.560332,543.904024 622.7244,591.0922 632.25,619.13 C633.54,620.3 645.08,629.68 647.11,632.28 C683.96,597.68 683.93,601.43 722.24,592.2 C727.4,591.07 732.41,588.94 737.74,588.78 C736.21,589.81 696.03,611.43 686.07,615.97 C685.902,616.257 669.1475,637.0211 659.05161,649.62866 L658.203097,650.688665 C654.324528,655.535904 651.6176,658.9472 651.57,659.09 C651.57,659.09 650.01,664.53 631.75,719.06 C631.746396,719.068692 631.744298,719.105541 631.743664,719.169421 L631.743808,719.285372 C631.761882,721.279185 632.47921,736.082788 633.463591,751.692979 L633.56518,753.291813 L633.63389,754.359417 C633.645405,754.537407 633.656952,754.715413 633.668529,754.893417 L633.800868,756.907549 C633.836227,757.440183 633.871841,757.972207 633.907692,758.503146 L633.979704,759.563437 C634.943943,773.677632 636.068588,786.795882 637.03,789.93 C657.87,858.53 641.76,830.94 678.77,867.51 C726.11,853.74 692.19,864.69 765.01,815.09 C764.19,816.6 699.25,884.76 698.38,885.76 C657.86,946.92 665.71,925.32 649.41,988.8 C642.041642,1011.51582 640.76722,1031.04882 642.996275,1050.27623 L643.1,1051.15 C645.63,1071.95 652.21,1092.45 659.59,1116.32 C660.022,1116.83429 663.519437,1120.40872 667.078915,1124.14464 L667.672221,1124.76829 C670.83409,1128.09711 673.913143,1131.42629 674.8,1132.72 C681.04,1139.68 672.48,1135.48 708.15,1142.71 C758.93,1143.2 748.36,1151.73 818.9,1092.45 C908.34,1021.49 874.77,1017.97 957.89,984.15 C961.652,982.6056 967.637936,980.041248 973.822471,977.390531 L974.854718,976.948105 C975.371414,976.726652 975.888708,976.50496 976.405427,976.283568 L977.437753,975.841346 C978.253855,975.491824 979.066558,975.143959 979.87121,974.799896 L980.673007,974.457179 C989.1932,970.81674 996.620933,967.690133 997.31,967.68 C990.65,972.49 927.66,1016.02 927.42,1016.83 C936.3276,1018.1404 951.516592,1022.16832 967.338753,1025.87803 L969.166875,1026.30449 L971.08201,1026.74619 C984.496936,1029.82055 998.046491,1032.49774 1008.33,1032.95 C1009.67521,1032.59096 1017.24714,1032.20212 1025.12353,1031.79776 L1026.70111,1031.71668 L1027.54955,1031.6729 C1035.31863,1031.27106 1042.79315,1030.85553 1044.29,1030.44 C1047.86,1030.52 1051.33,1029.66 1054.9,1029.76 C1079.06,1023.72 1041.42,1042.15 1105.58,1007.66 C1112.82096,1002.89203 1114.55031,1001.87409 1114.98016,1001.46546 L1115.0184,1001.42713 C1115.04702,1001.39663 1115.06783,1001.36954 1115.08317,1001.34412 L1115.09909,1001.3143 C1115.10135,1001.30943 1115.10343,1001.3046 1115.10535,1001.29979 L1115.11708,1001.26348 C1115.12014,1001.25139 1115.12246,1001.23924 1115.12432,1001.2268 L1115.12887,1001.18839 L1115.13071,1001.16811 L1115.13464,1001.12457 C1115.16123,1000.857 1115.2825,1000.3285 1117.12,998.33 L1117.16276,998.266683 C1117.70644,997.462851 1121.84852,991.366167 1126.31974,984.67313 L1126.93788,983.747152 C1127.09205,983.516031 1127.24644,983.284463 1127.4009,983.052636 L1128.09605,982.008312 L1128.78959,980.964341 L1129.24974,980.270452 C1133.91554,973.229231 1138.16348,966.653117 1138.25,965.92 C1138.25911,965.86078 1139.6482,958.291582 1141.15811,950.054573 L1141.30223,949.268296 L1141.50231,948.176678 C1141.5357,947.9945 1141.5691,947.81225 1141.6025,947.63 L1141.90271,945.991704 L1142.04677,945.205427 C1143.46006,937.491403 1144.76373,930.36308 1144.92358,929.440352 L1144.93586,929.368127 C1144.93861,929.351329 1144.94,929.34188 1144.94,929.34 C1144.94,929.34 1155.10525,921.112416 1165.67821,912.555729 L1168.21856,910.499849 C1177.94825,902.625759 1187.36232,895.007937 1188.86272,893.796837 L1189.01717,893.672281 C1189.05196,893.644284 1189.0698,893.63 1189.07,893.63 C1189.31,893.29 1208.34,854.21 1208.54,852.63 C1208.51712,850.927531 1209.12048,844.912561 1209.85452,838.454708 L1209.95097,837.610186 C1209.96715,837.46912 1209.98339,837.327924 1209.99967,837.186638 L1210.18549,835.587309 C1210.97614,828.836362 1211.829,822.22175 1212.19,820.07 C1209.98,810.72 1201.99,769.6 1201.48,765.82 C1200.31,765.91 1190.09,791.96 1189.68,793.07 C1167.08026,809.923067 1148.75415,817.271902 1131.3575,823.143043 L1130.10149,823.565001 C1126.96526,824.614023 1123.85676,825.621099 1120.75624,826.633607 L1118.78855,827.277647 C1107.3144,831.04405 1095.8925,835.0225 1083.52,841.62 C1049.42,880.64 1056.88,880.84 980.55,880.46 C979.63,880.24 962.66,878.71 960.21,878.86 C956.49,877.91 952.62,878.8 948.92,877.89 C932.17,878.22 952.08,874.05 916.64,882.42 C880.26,890.84 889.29,889.53 860.86,909.6 C842.75398,922.374803 839.814677,924.635836 837.917961,926.832221 L837.801845,926.968089 C837.782672,926.99075 837.76358,927.013428 837.744551,927.036133 L837.55892,927.26075 C836.420266,928.656329 835.3318,930.2911 830.84,934.72 C801.04,978.24 814.3,927.3 770.87,1036.94 C770.11,1038.62 769.08,1040.22 768.97,1042.12 C766.36,1042.15 763.76,1042.14 761.16,1042.14 C766.63,1027.76 783.01,907.36 867.79,867.83 C869.54,866.92 871.43,866.2 872.94,864.88 C868.38,846.64 871.22,813.52 875.6,788.38 C880.43,765.81 879.02,772.69 875.81,767.92 C874.790308,766.390462 870.732655,762.166225 866.441556,757.593298 L865.855222,756.967776 L865.267575,756.339253 L864.611984,755.635724 C864.393753,755.40107 864.175944,755.166374 863.958923,754.931942 L863.310591,754.229746 C858.686407,749.207414 854.59587,744.448913 854.68,743 C854.482831,741.967006 853.253144,736.623894 851.910721,730.849022 L851.738807,730.109758 L851.566092,729.367596 C851.537264,729.243761 851.508419,729.119879 851.479568,728.995989 L851.283882,728.155988 C849.686604,721.301948 848.130103,714.680412 848.12,714.64 C848.12,714.64 856.57,695.5 870.47,647.31 C875.52,630.85 875.76,637.94 875.03,597.97 C833.3,469.37 823.08,552.91 823.74,446.91 C823.960545,444.857235 818.495219,432.951732 812.333437,419.897388 L811.907443,418.995373 C811.693954,418.54356 811.479774,418.09062 811.265107,417.636908 L810.835183,416.728561 C810.691699,416.425507 810.548059,416.122215 810.404324,415.818792 L809.972893,414.908236 C809.829028,414.604656 809.685128,414.301051 809.541254,413.997526 L808.877625,412.597596 C805.231109,404.905348 801.6614,397.3696 799.16,391.72 C795.929136,350.732872 796.318381,329.256416 797.367308,309.944943 L797.437392,308.674612 C797.472881,308.040831 797.509016,307.408989 797.545692,306.778464 L797.619731,305.518986 C797.64463,305.099622 797.669737,304.68066 797.695022,304.261915 L797.831993,302.019666 L797.909777,300.763476 C798.859808,285.471274 799.929304,269.784912 799.59,244.75 C749.24,187.36 782.6,246.01 753.7,170.11 C753.673134,169.424925 752.625774,161.680595 751.464613,153.265161 L751.348152,152.421617 C751.25084,151.717194 751.152948,151.00959 751.055,150.3025 L750.897533,149.166513 L750.783228,148.342849 L750.669315,147.522775 C749.911617,142.070504 749.192494,136.945177 748.760598,133.898689 L748.697999,133.457526 C748.496724,132.040413 748.370364,131.164909 748.35,131.05 C751.93,125.33 758.73,109.51 761.59,104.69 C761.71,116.17 761.57,127.66 761.66,139.14 L777.34,193.01 C793.65,209.73 791.29,225.18 828.03,235.2 L827.61,238.19 C817.2,312.18 809.51,368.88 851.63,431.42 C854.45,429.23 907.53,402.29 910.79,400.83 C910.992025,401.234051 912.811349,406.126741 914.631991,411.241081 L914.919236,412.049828 C916.783338,417.31057 918.559241,422.568228 918.5,423.21 C918.33165,423.2191 902.913839,429.35614 886.115098,436.054114 L885.005635,436.496493 L883.893053,436.940142 C882.964847,437.310281 882.034313,437.681375 881.10375,438.0525 L878.871524,438.942787 L878.336559,439.156159 L877.268222,439.582276 C876.201142,440.007897 875.138226,440.431873 874.082991,440.852792 L873.030446,441.272641 C857.459537,447.483727 843.836512,452.918736 843.64,452.97 C843.1369,455.4582 842.434549,460.787628 841.764884,466.363671 L841.611032,467.653647 C841.560012,468.084311 841.509291,468.515253 841.458974,468.945292 L841.358911,469.803818 C840.58116,476.502321 839.919571,482.787465 839.777973,484.141747 L839.759257,484.32103 C839.75314,484.379731 839.75,484.41 839.75,484.41 C843.91,491.76 879.16,538.36 899.11,589.41 C900.92,686.8 852.9,698.05 887.04,742.77 C887.822143,743.780714 888.970357,745.551633 890.201753,747.400357 L890.573384,747.956626 C892.69023,751.114311 894.965714,754.299643 896.01,754.16 C942.89,754.31 930.96,754.54 937.42,752.26 C988.67,733.08 1008.06,701.52 1034.61,689.95 C1114.49,656.98 1122.3,662.25 1145.26,662.07 C1145.84667,661.4375 1146.38213,660.795022 1146.88928,660.128288 L1147.16324,659.762124 C1150.918,654.661206 1153.29813,648.031562 1164.14,633.74 C1164.54669,633.207837 1164.69132,627.331437 1164.72291,620.753018 L1164.72601,620.005542 L1164.7286,619.065042 L1164.72927,618.675535 L1164.72944,616.724688 C1164.72061,609.320512 1164.6096,602.204879 1164.6,601.72 C1156.74,579.81 1154.2,569.44 1144.32,560.71 C1144.27,560.76 1140.04,569.01 1118.03,593.52 C1120.78,599.15 1123.05,605 1126.04,610.52 C1121.95,612.84 1118.46,616.03 1114.57,618.63 C1110.81,614.97 1067.6,588.3 1062.51,589.33 C1062.4414,589.3447 1053.58514,591.277799 1044.39195,593.266913 L1043.26514,593.510632 L1042.84669,593.601093 L1042.01054,593.781776 L1041.17654,593.961883 C1032.71334,595.788986 1024.80385,597.478482 1024.12,597.56 C1023.97646,597.624946 1023.74875,597.735702 1023.44631,597.887179 L1023.16899,598.02687 C1020.70916,599.272086 1014.57405,602.520693 1008.20443,605.917834 L1006.73128,606.703924 L1005.98353,607.103232 L1005.23729,607.501931 L1004.49378,607.899357 C996.952879,611.931139 990.026831,615.66283 989.53,615.96 C988.53,616.66 962.78,648.27 946.16,675.51 C945.58,675.23 930.44,662.58 930.12,662.2 C937.07,651.4 943.13,640.07 949.49,628.92 C961.7,602.61 1031.01,566.11 1033.51,566.3 C1061.91,570.43 1067.75,567.03 1102.95,574.74 C1104.33547,573.487293 1104.73414,573.085656 1104.84407,572.936602 L1104.86665,572.903054 C1104.87796,572.883985 1104.88236,572.87098 1104.88354,572.860893 L1104.88322,572.846678 C1104.88084,572.835231 1104.88024,572.832419 1104.87985,572.829437 L1104.87958,572.819804 C1104.88161,572.793568 1104.90774,572.747915 1105.04384,572.609219 L1105.10435,572.548604 C1105.96136,571.702551 1110.01792,568.146056 1128.89,551.92 C1130.49328,549.564262 1131.35885,544.390734 1132.03034,538.889094 L1132.1622,537.785129 L1132.29436,536.637234 C1132.85879,531.660078 1133.32629,526.690796 1134.09,523.53 C1122.61,490.61 1127.83,480.86 1071.18,445.7 C1049.28,434.7 1055.47,400.91 1003.52,374.47 C1006.4736,379.2332 1010.99336,389.193272 1015.39971,399.533277 L1015.90754,400.727767 C1015.99206,400.927038 1016.07652,401.126382 1016.1609,401.325763 L1016.79209,402.821292 L1017.18643,403.759631 C1017.25201,403.915918 1017.3175,404.072142 1017.38292,404.228286 L1017.77435,405.164072 C1023.04389,417.780767 1027.68891,429.660419 1028.64,432 C1028.52407,432.71878 1027.46839,439.725458 1026.38543,447.201239 L1026.27137,447.989645 L1025.99162,449.933011 C1025.17979,455.593885 1024.41544,461.119894 1024.09032,464.012915 L1024.04784,464.399253 C1023.95556,465.259663 1023.91178,465.828651 1023.93,466.02 C1024.3304,466.216196 1035.73999,471.831213 1049.2829,478.580223 L1050.17884,479.026811 C1050.47845,479.176191 1050.779,479.326073 1051.08039,479.476412 L1051.987,479.928754 C1052.44147,480.155564 1052.89763,480.3833 1053.35514,480.611808 L1055.44307,481.655262 C1056.49062,482.179113 1057.54273,482.705749 1058.59567,483.233369 L1060.70155,484.289386 C1061.3891,484.634431 1062.07595,484.979382 1062.76104,485.323738 L1063.78724,485.839762 C1079.83971,493.915172 1094.63776,501.522796 1094.67,502.14 L1094.09836,502.024151 L1092.95656,501.78648 C1090.674,501.31 1088.394,500.854 1086.05,500.91 C1083.49,500.22 1080.83,500.71 1078.28,500.15 C989.84,492.82 1013.1,492.89 950.79,477.77 C950.09,477.6 949.395625,477.4075 948.702969,477.208906 L947.318791,476.808455 C945.703889,476.343125 944.084167,475.904167 942.41,475.7 C942.58,475.61 994.8,467.16 1000.88,465.53 C1001.18,426.04 990.71,406.3 976.4,369.76 C976.067733,369.568045 975.355406,369.10645 974.337326,368.427938 L973.965429,368.179542 C970.570332,365.907334 964.288362,361.587037 957.371183,356.816292 L956.585513,356.274369 C955.797372,355.730693 955.002179,355.182017 954.203201,354.630659 L952.003259,353.112397 L951.209061,352.564261 C950.94432,352.381543 950.679609,352.198847 950.415046,352.016257 L949.621915,351.468882 C949.225688,351.195435 948.830055,350.922411 948.435411,350.650089 L947.64756,350.106466 C947.516511,350.016046 947.3856,349.925725 947.254843,349.835513 L946.472265,349.295634 C936.585939,342.475869 927.7566,336.406587 926.4,335.64 C907.8,335.5 889.2,335.71 870.61,335.54 C873.652,333.98 879.157344,332.371328 884.755381,330.687268 L886.047802,330.297289 C890.7848,328.862368 895.4576,327.372 898.63,325.81 C898.7,319.676552 898.73679,315.062628 898.743041,311.575288 L898.743123,309.601855 C898.727365,301.516509 898.500705,300.794705 898.112949,300.112141 L898.076126,300.048042 L898.019142,299.949392 C898.006248,299.926856 897.9932,299.9038 897.98,299.88 C896.36,295.33 883.44,263.9 883.15,263.33 C882.2084,261.394 876.887568,256.797936 871.138338,252.202956 L870.352068,251.576625 C870.08934,251.368016 869.826098,251.15966 869.562713,250.951806 L868.7725,250.33 L868.136123,249.83176 C861.780697,244.866649 855.733871,240.459677 855.25,240.15 C855.355926,239.591481 856.238464,236.670672 857.204458,233.584237 L857.428546,232.870043 C858.403278,229.771125 859.408148,226.675556 859.75,225.78 C859.75,225.78 859.765932,225.787776 859.797032,225.802955 L859.879228,225.843072 C860.745944,226.266086 865.84877,228.756584 871.431198,231.480796 L872.08994,231.80226 C872.310107,231.9097 872.530786,232.017389 872.751748,232.125216 L873.58125,232.53 C873.719575,232.5975 873.857901,232.665 873.996171,232.732473 L874.824695,233.136771 L875.153743,233.297336 L875.809278,233.617213 C881.908542,236.593409 887.415539,239.28 887.42,239.28 C887.45,201.97 893.06,215.32 862.91,160.99 C860.07,159.45 800.49,136.02 799.49,135.72 C800.156758,135.362653 809.098002,134.42987 819.122555,133.495193 L819.99681,133.413926 C820.72734,133.346223 821.462464,133.278597 822.199445,133.211267 L823.60125,133.08375 L825.003355,132.957277 C826.33049,132.838061 827.652414,132.720698 828.953169,132.606461 L829.817027,132.53078 C838.850936,131.741285 846.673794,131.118827 847.811986,131.099958 L847.9,131.1 C844.49,112.15 820.98,80.08 820.11,79.08 C818.59,77.15 776.82,60.41 742.03,61.47 C714.11,33.61 732.78,41.5 697.58,23.91 C693.86,21.97 689.95,20.37 686.52,17.93 Z M1172.39,671.71 C1171.76477,673.762385 1167.19429,676.92527 1162.09537,679.901308 L1161.39711,680.305852 C1161.16347,680.440232 1160.92907,680.574105 1160.69422,680.707348 L1159.9065,681.151033 L1159.18661,681.551163 C1153.9103,684.466056 1148.75225,686.933523 1147.33,687.58 C1147.1515,687.6549 1146.99985,687.7249 1146.84848,687.793358 L1146.71817,687.851737 L1146.58428,687.90983 C1144.55328,688.771759 1140.1112,689.6946 1078.63,697.58 C1075.6105,698.1875 1065.62095,704.0114 1055.45472,710.309555 L1054.09877,711.151703 L1052.94069,711.874175 L1051.78594,712.59737 L1051.01905,713.079129 C1050.63633,713.319839 1050.25479,713.560235 1049.87479,713.800059 L1049.11697,714.278864 C1039.04315,720.650686 1030.24591,726.491591 1029.79,726.87 C972.28,773.21 975.68,768.62 962.57,770.99 C962.098736,771.088966 956.499411,772.262847 950.581297,773.45036 L949.713514,773.624117 C943.341272,774.897239 936.872069,776.126437 936.25,776 C935.781915,775.911064 929.56455,774.840543 922.908417,773.742238 L921.998542,773.592387 L921.08622,773.442728 L920.711504,773.381443 L919.589982,773.198697 C913.128637,772.14894 907.082492,771.221839 906.31,771.29 C905.548,774.776 903.9688,777.9344 902.34568,781.07624 L901.695923,782.33283 C900.831344,784.009072 899.9836,785.6924 899.27,787.43 C887,821.08 890.93,783.71 889.06,856.54 C906.21,849.14 895.4,851.29 907.24,850.51 C967.88,856.03 940.86,852.86 955.71,856.09 C1004.17,867.43 978.72,868.25 1031.75,867.59 L1031.85583,867.484774 C1033.38354,865.979129 1047.30551,852.577913 1061.66,838.684684 L1063.51125,836.8925 L1065.3616,835.100292 L1065.80492,834.670761 L1066.6901,833.812932 C1066.83745,833.670122 1066.98469,833.527402 1067.13181,833.384783 L1068.01307,832.530394 C1068.15968,832.388233 1068.30615,832.246199 1068.45246,832.104304 L1069.32837,831.254704 C1077.92115,822.918714 1085.88316,815.154592 1090.52263,810.528485 L1090.98289,810.068951 C1093.22583,807.826369 1094.58616,806.4176 1094.71,806.18 C1096.51,806.151875 1098.24988,805.731406 1099.9866,805.28167 L1101.14457,804.981494 C1102.1102,804.734375 1103.07875,804.503125 1104.06,804.35 C1139.85,796.38 1129.53,801.52 1161.49,781.51 C1166.33,778.99 1177.53,766.05 1178.23,765.05 C1188.28,754.87 1182.71,761.7 1193.05,714.59 C1187.2,693 1184.27,684.27 1184.27,684.27 L1184.22598,684.221487 C1183.87242,683.838236 1181.51395,681.335773 1178.99086,678.66524 L1178.42822,678.069815 L1177.86464,677.473615 C1175.23942,674.69694 1172.73038,672.050381 1172.39,671.71 Z M824.46,719.35 C818.88,722.55 728.83,766.62 725.94,767.62 L717.84,740.83 C723.375456,739.204912 742.219702,735.25692 762.582924,731.180271 L763.912992,730.914242 C764.578982,730.78116 765.246315,730.647991 765.914581,730.514812 L767.921773,730.115321 L772.292791,729.248848 C773.035702,729.101972 773.778165,728.955381 774.519625,728.809178 L776.00104,728.517321 C799.430352,723.905419 821.480325,719.752135 824.46,719.35 Z M408.53,108.05 C405.69,109.42 402.92,110.93 399.97,112.05 C396.223418,113.933803 386.986781,119.3857 377.460029,125.120227 L376.456366,125.724764 C376.121604,125.926529 375.78671,126.128501 375.451908,126.330536 L374.091446,127.152148 C373.563839,127.471024 373.037222,127.789581 372.512477,128.107259 L371.726876,128.583048 L370.944747,129.0571 C360.152381,135.600868 350.547245,141.525786 350.03,141.84 C342.1,146.56 348.56,141.18 340.81,152.43 C296.43,221.54 311.32,206.24 293.35,213.61 C262.86,224.34 271.57,217.83 235.61,253.84 C233.16,256.22 230.89,258.8 228.17,260.87 C227.265862,264.078966 226.37157,267.542628 225.496067,271.074824 L225.204942,272.254506 C224.959271,273.254184 224.715173,274.257668 224.472848,275.260781 L224.182923,276.464073 C224.086574,276.864933 223.990522,277.265467 223.894778,277.665408 L223.60849,278.863182 C220.992927,289.82156 218.621111,300.129138 216.76,304.23 C232.89,284.27 237.32,269.99 282.65,247.63 C281.73381,249.00181 275.441503,254.633799 268.59757,260.597871 L267.911516,261.19524 C267.796927,261.294937 267.68223,261.39469 267.567446,261.494481 L266.313515,262.583208 C266.034581,262.825091 265.755617,263.066807 265.476942,263.308097 L264.642098,264.030434 C258.94758,268.954143 253.5077,273.5903 251.06,275.71 C249.212765,276.940031 245.321047,286.00693 241.504348,295.897967 L241.162811,296.785749 C240.821587,297.67536 240.481473,298.569901 240.143989,299.464337 L239.62969,300.83262 C239.527738,301.104881 239.426103,301.376894 239.324827,301.648515 L239.022124,302.462061 C238.871356,302.868104 238.721494,303.272946 238.572685,303.676104 L238.276512,304.480033 C234.691204,314.230383 231.786504,322.79378 231.66,323.23 C252.55,352.4 223.45,338.91 278.77,348.46 C278.77,348.46 285.747117,344.778678 293.155637,340.854726 L293.85125,340.48625 L295.23133,339.754937 L296.149684,339.268084 L296.511085,339.076441 L297.231072,338.694559 C303.690993,335.267648 309.557211,332.140263 310.38,331.65 C299.63,358.86 309.32,345.67 274.91,379.44 C260.38,379.58 245.85,379.42 231.32,379.51 C216.236048,399.81808 210.755909,405.434643 207.392947,410.479353 L207.176548,410.80769 C206.962997,411.135506 206.757759,411.462196 206.558756,411.791676 L206.30688,412.21592 C205.4776,413.6372 204.746,415.14 203.95,417.03 C188.35,465.27 192.48,463.84 196.71,493.19 C198.67,509.19 200.21,519.61 200.21,519.61 L243.16,558.82 L208.91,540.94 C206.44,539 195.12,522.07 193.62,519.83 C184.31,505.38 184.26,511.6 184.08,498.49 C183.08,498.16 148.37,486.19 146.11,484.95 C145.701372,485.134855 138.283325,487.991431 130.219614,491.065398 L129.437453,491.363475 C129.306828,491.41324 129.176089,491.463041 129.045261,491.512868 L128.043547,491.894225 C121.192837,494.501256 114.288066,497.106673 111.139188,498.241081 L110.70563,498.39642 C110.435056,498.492752 110.202,498.5744 110.01,498.64 C100.61,532.36 90.33,508.55 90.99,615.65 C92.7844615,615.147846 95.756826,614.269418 98.852518,613.360032 L99.6284,613.13224 C99.7579385,613.094234 99.8875385,613.056224 100.017124,613.018235 L100.793848,612.790757 C105.445808,611.429811 109.880923,610.161077 110.54,610.15 C112.09,614.11 115.09,617.21 117.28,620.8 C119.17,623.39 219.58,651.78 221.26,654.05 C220.49,653.92 133.2,640.89 133.2,640.89 L106.12,649.96 C95.99905,671.162398 94.5422286,674.652167 94.3017361,675.339911 L94.2757166,675.417933 C94.244654,675.51713 94.2538,675.519 94.23,675.57 C94.1614286,679.362857 94.1534694,683.157551 94.1596793,686.952507 L94.1772303,694.542303 C94.1802041,697.072041 94.1757143,699.601429 94.15,702.13 C91.84,704.27 88.38,704.66 86.39,707.21 C75.36,670.7 71.68,673.7 77.64,636.85 C37.13,665.32 56.62,709.81 58.42,727.25 L58.4363765,727.260585 L58.5213527,727.310489 C59.4193393,727.828289 66.0585561,731.503876 73.1129278,735.375646 L73.8567965,735.783798 C74.3534244,736.056211 74.8511765,736.329079 75.3482122,736.601378 L76.2862963,737.115089 C82.4611026,740.49508 88.3444533,743.686482 90.3721779,744.70741 L90.5927304,744.817386 C90.7613423,744.900489 90.8915517,744.961983 90.98,745 C91.8569049,744.854584 98.8270991,743.996536 106.422952,743.03166 L107.238939,742.927899 L108.468627,742.771087 L110.034115,742.570568 C110.207887,742.548249 110.381538,742.525924 110.555005,742.503601 L111.593074,742.369729 C119.526768,741.344356 126.799,740.3514 127.19,740.08 C138.6751,732.8985 159.587204,722.320919 180.756978,711.464741 L183.154164,710.234718 C183.807973,709.899023 184.461699,709.563176 185.11507,709.227266 L187.073851,708.219445 C203.709877,699.652949 219.940182,691.106009 231.29,684.1 C280.89,683.65 268.78,681.34 309.88,695.25 L313.04,627.95 C312.552959,627.002245 304.366886,617.820241 295.266795,607.664595 L294.630507,606.954574 C294.524241,606.836004 294.417872,606.717325 294.311411,606.598549 L293.351082,605.527243 C292.709598,604.811697 292.065969,604.093878 291.4225,603.37625 L290.162147,601.970634 C289.632098,601.379478 289.103184,600.78955 288.576698,600.202236 L287.946164,599.498802 C278.717862,589.202777 270.402366,579.888105 270.06,579.11 C274.128,581.418 281.3128,584.9708 288.68064,588.62024 L289.786822,589.168237 L291.594279,590.064432 C292.045525,590.288363 292.496008,590.512091 292.945054,590.735349 L293.841027,591.181162 C303.075479,595.779821 311.503685,600.103037 313.17,601.82 C313.27912,601.6712 316.15838,594.203424 319.048819,586.670995 L319.328481,585.942092 C319.375067,585.820656 319.421632,585.699263 319.468165,585.577946 L319.816387,584.669935 L320.086356,583.965767 C322.642859,577.296757 324.942227,571.275542 325,571.12 C324.677935,570.856396 324.169452,570.426258 323.516043,569.865651 L323.145515,569.547143 C320.967234,567.671397 317.476437,564.61182 313.898332,561.433332 L313.266245,560.871405 C313.160829,560.777617 313.0554,560.68378 312.949989,560.589922 L311.848831,559.608047 C306.603526,554.92409 301.675056,550.422472 300.96,549.49 C286.8,503.73 291.3,509.72 291.23,501.58 C296.32,482.77 283.52,480.67 313.27,413.94 C314.4062,413.02 321.907328,406.634372 329.67723,400.006166 L330.691719,399.140671 C339.48848,391.635232 348.29,384.11 348.29,384.11 C348.56,383.01 347.8,381.89 347.68,380.78 C339.69,333.27 337.69,342.29 337.24,330.39 C337.1526,328.0568 337.124404,324.923624 337.12194,320.40828 L337.121978,318.935758 L337.122092,318.745029 L337.122989,317.768614 C337.129798,311.927823 337.16284,304.090145 337.170152,293.351777 L337.170985,291.86939 L337.17114,291.493115 L337.171276,287.201381 C337.171191,286.932676 337.171087,286.662387 337.170965,286.390505 L337.17,284.74 C337.145,284.32 340.8075,275.3675 344.785,266.18 L345.263596,265.076903 L345.743921,263.974736 C349.429732,255.5365 353.1538,247.4612 354.29,246.21 C364.04,233.53 374.05,221.03 384.18,208.65 C400.97,198.33 414.48,188.56 415.48,187.88 C414.803077,185.98 414.064852,184.044497 413.298425,182.125052 L412.968326,181.303567 C408.82292,171.051043 404.003846,161.470769 403.6,160.49 C402.99,100.91 402.94,116.21 408.53,108.05 Z M729.6,378.81 C717.63,425.6 717.03,408.74 721.33,436.36 C721.52,438.96 722.16,441.52 722.06,444.15 C727.09,445.42 764.36,451.41 769.34,453.29 C767.365,453.29 756.53,454.3875 745.70375,455.48625 L744.40521,455.618036 C734.026304,456.671248 723.9824,457.6852 722.12,457.69 C695.4282,472.2236 691.987496,474.808568 688.440777,476.600721 L688.152511,476.744513 C686.994832,477.314496 685.7596,477.8328 683.65,478.68 C682.06,481.06 659.32,507.26 658.85,507.64 C660.2412,504.3782 674.294388,481.465136 688.152124,457.70523 L689.036271,456.187671 C689.62536,455.17544 690.2136,454.1624 690.8,453.15 C696.15,410.77 713.49,392.11 729.6,378.81 Z M542.24,383.58 C541.9803,383.9916 536.17429,393.23888 530.249118,402.656991 L529.523361,403.810494 C523.597503,413.228115 517.774,422.4629 517.48,422.85 C517.921,423.4282 525.61302,435.970583 533.344176,448.613424 L534.290554,450.161222 L535.23438,451.705184 C542.61001,463.771891 549.48,475.04 549.48,475.04 C549.56,475.26 549.71,475.72 549.79,475.95 C532.46,456.31 524.38,447.11 491.1,432.16 C490.0488,431.8576 479.316192,430.769536 468.175315,429.758426 L466.78125,429.6325 C455.1575,428.5875 443.51,427.665 442.32,427.84 C439.2656,430.1768 430.743456,436.284312 422.141116,442.389793 L420.45852,443.583271 C420.271784,443.715644 420.085175,443.8479 419.89875,443.98 L418.782845,444.770418 C409.880304,451.073824 401.6556,456.8392 400.23,457.78 C401.934545,455.034545 405.395289,450.34281 408.89266,445.647881 L409.592113,444.709429 C413.552672,439.397815 417.41303,434.248485 418.67,432.09 C418.67,432.09 419.864028,431.42934 421.811257,430.349304 L422.64875,429.884687 C425.76795,428.153887 430.353518,425.605423 435.048859,422.981818 L435.93019,422.489193 L436.812108,421.995894 L437.692623,421.50301 C443.114063,418.467069 448.3422,415.5168 451.28,413.8 C451.54,413.77 461.0675,414.5975 470.655,415.46 L471.805199,415.563615 C480.999664,416.39304 489.91,417.2244 490.39,417.33 C505.09,418.29 494.39,419.88 510.36,408.69 C537.7085,387.1183 539.395475,385.11136 541.025547,384.177588 L541.143643,384.111697 L541.263689,384.047993 C541.527457,383.911214 541.8201,383.7789 542.24,383.58 Z M203.562488,326.47556 L202.986338,326.47556 C200.564454,326.479756 199.950763,326.554444 199.455282,326.875634 L199.381635,326.925684 C199.052313,327.159423 198.738351,327.509485 197.92,328.03 C148.62,369.58 174.72,317.66 133.3,427.18 C130.28,438.75 127.4,450.35 124.59,461.97 C130.2952,461.1064 144.27736,459.38736 159.291967,458.218391 L160.61928,458.11671 C161.948904,458.016528 163.284907,457.92095 164.622313,457.830943 L165.960002,457.742827 C166.405931,457.714098 166.851832,457.686024 167.29752,457.65864 L168.633761,457.578595 C172.639464,457.344888 176.613,457.17 180.42,457.08 C179.9554,454.6374 181.509464,443.70964 183.426507,432.46321 L183.678478,430.995149 L183.83071,430.117626 C183.932552,429.532851 184.035064,428.948748 184.138013,428.366462 L184.292736,427.494541 C186.333477,416.035977 188.499485,405.510216 189,404.75 C197.72,390.19 207.37,376.21 216.06,361.63 C216.34,360.53 211.42,328.43 211.31,326.51 C207.696598,326.504845 205.251625,326.479099 203.562488,326.47556 Z M906.79,216.27 C906.1204,220.266 905.325232,224.57304 904.505273,228.852017 L904.196823,230.454656 L904.008548,231.426617 C901.559375,244.04235 899.070355,255.81169 899.17,257.89 C902.35,265.06 906.46,262.43 916.12,290.31 C919.03,297.56 921.36,306.72 922.94,309.15 C922.94,309.16 982.04,340 982.04,340 C983.95,342.62 986.45,350.3 989.59,350.13 C992.184022,350.689022 996.8516,351.836791 1001.50531,353.009332 L1002.25951,353.199602 L1003.01149,353.389771 C1009.3883,355.004273 1015.31,356.55 1015.31,356.55 C1015.67,319.51 1017.66,330.14 1003.39,301.53 C993.04,279.84 996.08,287.67 972.56,266.4 C973.997059,264.332941 975.637578,262.428651 977.300039,260.541913 L978.726145,258.925622 C980.623495,256.767266 982.481765,254.577647 984.03,252.14 C984.616,252.706 986.3672,254.5968 988.8016,257.26784 L989.551934,258.092015 C993.144642,262.042314 997.98195,267.41515 1002.74125,272.71625 L1003.75942,273.850557 L1004.35316,274.512217 C1012.25505,283.318948 1019.5198,291.451707 1019.96,291.92 C1033.63,320.46 1038.71,345.61 1040.13,366.41 C1054.29,383.99 1069.74,404.06 1078.71,426.94 C1081.07943,427.49434 1085.54979,429.333777 1090.1802,431.208087 L1091.25071,431.64067 C1095.71566,433.440936 1100.19057,435.184528 1102.95,435.76 C1110.03,412.29 1118.91,431.14 1091.72,388.23 C1076.83,361.95 1089.81,398.28 1072.41,328.33 C1070.95,320.02 1053.4,285.8 1048.94,281.66 C1027.61,264.03 1008.87,249.33 994.49,238.43 C978.18,226.08 967.47,218.63 964.93,217.36 C913.85,216.86 907.41,216.43 906.79,216.27 Z M509.47,191.97 C547.23,218.5 510.09,296.9 488.47,337.56 C486.8,341.54 484.94,345.45 482.81,349.19 C482.525,346.46 482.7975,343.765 483.1425,341.07375 L483.334957,339.60598 C483.625682,337.404318 483.905909,335.201364 483.91,332.98 C483.9984,332.6732 484.697904,322.796944 485.346248,312.815556 L485.420793,311.66393 C485.98998,302.839472 486.4992,294.2176 486.49,292.35 C483.5843,291.6542 466.495893,289.889955 449.393248,288.051399 L447.299939,287.825966 C430.219736,285.983 413.7036,284.1063 411.92,283.19 C412.228072,283.159256 420.2872,282.378 478.46,278.85 C485.46,275.95 492.12,272.04 499.1,268.98 C524.52,238.81 516.5,219.76 509.47,191.97 Z M887.42,113.99 C885.34,114.41 883.42,115.33 881.46,116.06 C876,117.73 870.51,119.27 865.09,121.01 C865.57957,123.436022 866.380297,127.023049 867.253858,130.829612 L867.435556,131.62 L867.522807,131.998622 L867.786249,133.1385 C867.962517,133.89962 868.139761,134.661937 868.316148,135.418216 L868.492182,136.172213 C870.043428,142.81001 871.480205,148.78841 871.54,149.12 C871.951298,149.587385 877.504872,155.411123 883.525588,161.769061 L884.109539,162.385851 C884.207055,162.488874 884.304653,162.591995 884.402314,162.695194 L885.180573,163.517849 L885.570008,163.929708 L886.348115,164.753071 L886.952912,165.393492 C892.686958,171.467268 898.045637,177.201217 899.01,178.45 C900.77,186.69 902.33,194.99 904.06,203.24 C904.155408,203.218316 914.997289,201.150402 927.259829,198.807786 L928.127658,198.641992 L928.999477,198.475424 C929.290668,198.419787 929.582402,198.364045 929.874558,198.30822 L931.1917,198.056525 L932.071745,197.888338 C932.365252,197.832243 932.658878,197.776122 932.9525,197.72 L934.678049,197.39015 C935.118139,197.306015 935.557685,197.221978 935.996276,197.138116 L936.872063,196.970649 C949.840411,194.490711 961.727285,192.210902 961.8,192.17 C947.61,156.44 955.8,163.98 929.23,131.07 C928.243,130.0116 928.006582,129.347013 927.791257,128.809985 L927.729679,128.65979 L927.705477,128.603523 L927.655037,128.493147 C926.810703,126.729457 924.339267,125.888117 887.42,113.99 Z"/></g>
</svg>
